<?xml version="1.0" encoding="iso-8859-1"?>
<!-- Generator: Adobe Illustrator 19.0.0, SVG Export Plug-In . SVG Version: 6.00 Build 0)  -->
<svg version="1.1" xmlns="http://www.w3.org/2000/svg" xmlns:xlink="http://www.w3.org/1999/xlink" x="0px" y="0px"
	 viewBox="0 0 97.444 97.445" style="enable-background:new 0 0 97.444 97.445;" xml:space="preserve">
<g id="Layer_10">
	<g id="XMLID_34_">
		<g id="XMLID_40_">
			<path id="XMLID_41_" style="fill:#37B34A;" d="M48.721,97.445C21.856,97.445,0,75.589,0,48.722C0,21.856,21.856,0,48.721,0
				s48.723,21.856,48.723,48.722C97.444,75.589,75.585,97.445,48.721,97.445z M48.721,3.548c-24.91,0-45.177,20.264-45.177,45.175
				c0,24.91,20.267,45.176,45.177,45.176s45.176-20.266,45.176-45.176C93.897,23.811,73.63,3.548,48.721,3.548z"/>
		</g>
		<g id="XMLID_35_">
			<path id="XMLID_39_" style="fill:#37B34A;" d="M49.154,40.95c-0.04,0-0.077,0.005-0.117,0.006
				c-0.04-0.001-0.077-0.006-0.117-0.006c-4.186,0-7.58,3.394-7.58,7.583c0,4.185,3.394,7.579,7.58,7.579
				c0.04,0,0.077-0.005,0.117-0.006c0.04,0.001,0.077,0.006,0.117,0.006c4.186,0,7.58-3.394,7.58-7.579
				C56.734,44.344,53.34,40.95,49.154,40.95z"/>
			<path id="XMLID_36_" style="fill:#37B34A;" d="M59.977,28.246c-3.446-0.502-7.072-0.776-10.823-0.776
				c-0.04,0-0.078,0.001-0.117,0.001c-0.038,0-0.077-0.001-0.117-0.001c-3.751,0-7.377,0.274-10.823,0.776
				C25.825,30.741,15.295,39.184,8.707,50.984c2.151,10.672,19.332,18.991,40.214,18.991c0.04,0,0.078-0.001,0.117-0.001
				c0.038,0,0.077,0.001,0.117,0.001c20.882,0,38.063-8.319,40.214-18.991C82.779,39.184,72.249,30.741,59.977,28.246z
				 M49.154,65.859c-0.04,0-0.077-0.005-0.117-0.006c-0.04,0.001-0.077,0.006-0.117,0.006c-9.571,0-17.331-7.756-17.331-17.327
				c0-9.572,7.76-17.331,17.331-17.331c0.04,0,0.077,0.005,0.117,0.006c0.04-0.001,0.077-0.006,0.117-0.006
				c9.571,0,17.331,7.758,17.331,17.331C66.484,58.104,58.725,65.859,49.154,65.859z"/>
		</g>
	</g>
</g>
<g id="Layer_1">
</g>
</svg>
