<?xml version="1.0" encoding="iso-8859-1"?>
<!-- Generator: Adobe Illustrator 19.0.0, SVG Export Plug-In . SVG Version: 6.00 Build 0)  -->
<svg version="1.1" xmlns="http://www.w3.org/2000/svg" xmlns:xlink="http://www.w3.org/1999/xlink" x="0px" y="0px"
	 viewBox="0 0 97.444 97.446" style="enable-background:new 0 0 97.444 97.446;" xml:space="preserve">
<g id="Layer_6">
	<g id="XMLID_152_">
		<g id="XMLID_157_">
			<path id="XMLID_166_" style="fill:#D2AF52;" d="M44.61,38.066c0.38-0.274-0.611-1.938-0.535-2.471
				c0.079-0.533-1.972,0.406-2.591,0.661c-1.109,0.452-3.416,1.15-4.496,1.676c-3.93,1.914-3.732-0.295-3.805-1.296
				c-0.049-0.689-0.309-2.488-0.534-2.717c-0.228-0.228,0-0.987,0-0.987s-2.157,0.593-2.741,1.041
				c-1.374,1.036-2.819,3.805-1.221,6.776c1.603,2.97,6.511,9.388,15.389-1.676C44.254,38.853,44.226,38.339,44.61,38.066z"/>
			<path id="XMLID_165_" style="fill:#D2AF52;" d="M52.245,54.357c0.773,1.413,4.631-0.2,10.419,2.084
				c5.789,2.286,7.995-2.056,7.921-5.714c-0.076-3.656-3.199-7.541-4.723-8.302c-1.523-0.759-5.331-1.796-5.335-0.456
				c-0.001,10.393,8.305-4.878,7.849-6.78c-0.458-1.904-5.56-1.6-5.56-1.6s-2.822-1.115-3.321-1.269
				c-0.498-0.152-1.39,1.247-1.481,1.828c-0.083,0.529,0.096,1.618,0.306,2.107c0.509,1.169,4.439-1.059,4.57,2.285
				c0.055,1.445-4.436,0.713-5.563,1.626c-0.874,0.705-1.673,2.925-2.133,3.951c-0.762,1.721-2.068,5.267-2.512,7.096
				C52.494,51.982,51.864,53.659,52.245,54.357z"/>
			<path id="XMLID_164_" style="fill:#D2AF52;" d="M55.748,59.173c0.171,0.114,3.989,0.589,5.255,1.029
				c0.977,0.339,3.489,0.932,3.641,1.952c0.095,0.639-1.178,0.296-1.634-0.088c-0.455-0.379-1.719-1.582-6.063-1.506
				c-4.341,0.078-3.352-0.081-7.615-1.069c-4.266-0.993-2.896-3.658-9.219-4.193c-6.323-0.531-6.904,0.986-8.685,2.361
				c-0.215,0.168-0.81,0.253-0.988,0.457c-0.645,0.741-1.571,2.882-1.136,3.761c0.233,0.472,1.454,0.64,1.972,0.732
				c0.874,0.158,1.906,0,3.43-0.912c1.523-0.913,3.961-1.6,5.94-0.992c1.982,0.609,3.71-1.575,8.611,5.64
				c0.489,0.723,0.91,2.919,0.91,3.377c0,0.457,1.591,0.117,2.106,0c1.785-0.407,5.299-1.932,7.113-1.703
				c2.906,0.37,7.314,0.609,9.142-2.59c1.827-3.198-0.228-6.018-1.828-7.388c-1.598-1.374-2.969-1.676-4.877-2.97
				c-1.902-1.297-7.315-3.83-9.828-1.925c-2.513,1.904-1.064,4.092-0.192,4.663C52.583,58.322,55.577,59.059,55.748,59.173z"/>
			<path id="XMLID_163_" style="fill:#D2AF52;" d="M52.126,59.287c0.506-0.228,1.052-1.07,0.402-2.006
				c-0.204-0.3,1.273-3.663,1.618-4.906c0.244-0.874,1.079-2.678,0.8-3.544c-0.25-0.78-1.632-2.061-2.441-2.189
				c-1.155-0.183-3.335,1.201-4.266,1.905c-0.783,0.592-1.875,2.272-2.514,3.02c-1.072,1.259-3.267,3.676-0.913,6.55
				c0.294,0.361,0.303,1.379,0.536,1.781c0.375,0.647,1.308,2.132,2.052,2.169c1.132,0.059,2.672-1.795,3.754-2.13
				C51.281,59.9,52.006,59.34,52.126,59.287z"/>
			<g id="XMLID_159_">
				<path id="XMLID_162_" style="fill:#D2AF52;" d="M49.476,85.676"/>
				<path id="XMLID_161_" style="fill:#D2AF52;" d="M46.428,69.071"/>
				<path id="XMLID_160_" style="fill:#D2AF52;" d="M27.574,67.013c0,0,1.257,1.259,1.945,0.227c0.684-1.025,2.626-3.77,1.481-5.255
					c-1.142-1.484,1.486-2.971-0.227-5.372c-1.714-2.399-1.485-1.483-1.255-3.998c0.225-2.514-1.83-1.371-0.688-3.124
					c1.142-1.753-1.753-1.905-1.297-4.951c0.458-3.047,0.155-4.569-0.53-5.179c-0.686-0.611-1.526-2.517-0.309-4.573
					c1.22-2.057,0.309-4.268,0.309-4.268l0.801,0.24c2.591,2.59,4.299,4.944,5.976,5.02c1.677,0.074,3.124,0.074,3.43,0.912
					c0.303,0.84,3.654,1.449,5.56,0.917c1.905-0.534,2.819-1.065,2.893-0.152c0.076,0.914-0.533,1.22,1.603,1.065
					c2.13-0.151,7.236-3.427,7.464-2.971c0.229,0.458,3.884-0.456,4.798-1.065c0.915-0.611,3.276-2.665,3.962-2.665
					c0.684,0,3.046-0.609,3.275-1.448c0.228-0.837,2.363-1.217,2.896-2.514l0.227-1.066c0,0,0,3.353-0.608,5.258
					c-0.611,1.902-0.611,3.275,0.23,3.885c0.833,0.609,0.606,1.522,0.224,2.436c-0.379,0.914-0.073,3.505,0,4.878
					c0.077,1.37-0.301,3.653,0.154,5.177c0.456,1.521-0.836,5.41-0.305,5.942c0.533,0.533,1.526,2.971,0.993,3.505
					c-0.534,0.533-1.908,2.97-1.297,4.035c0.608,1.066,1.523,1.142,0.686,1.906c-0.837,0.762-2.592,3.581-2.818,4.341l-0.308,0.076
					c-1.37,0.152-3.198,1.22-3.198,1.602c0,0.379,0.306-1.371-1.749-1.525c-2.059-0.152-1.522,1.296-2.973-1.066
					c-1.448-2.361-5.181-3.655-9.979-1.522c-4.8,2.133-8.077,6.017-7.77,9.979c0.301,3.961,1.296,4.418,1.296,6.474
					c0,2.056,2.362,2.056,2.055,4.571c-0.305,2.514,2.234,4.577,3.463,3.779c0.88-0.57,1.032-3.551,1.032-3.551
					c-0.684,1.145,0,3.582,1.905,3.887c1.906,0.305,2.361-5.106,4.494-9.064c0.956-1.781,1.163-3.435,0.933-4.853l0.818-0.251
					c0,0,0.763,0.303,1.371,0.303c0.612,0-0.912,0.913,0.612,3.199c1.522,2.284,6.245,0.608,7.31-0.152l-0.362,0.399
					c0,0,2.155,2.801,5.693-1.2c0,0-0.681,0.914,0.803,1.371c1.485,0.458,4.344-4.798,5.6-9.827c1.256-5.024,0.57-5.829,1.828-7.425
					c1.257-1.604-1.828-1.943,0-4.569c1.828-2.632-1.828-1.488,0.111-5.031c1.945-3.541-2.283-4.229-0.225-6.171
					c2.057-1.941-0.118-4.226,0.8-6.399c0.91-2.169,0-3.084-0.575-3.656c-0.568-0.571,1.146-0.571,0.12-2.283
					c-1.033-1.717-1.261-2.174-0.346-3.544c0.914-1.37,0-5.144-0.915-5.714c-0.913-0.572,1.371-0.684,0.687-4.457
					c-0.687-3.772-3.774-5.601-5.83-5.601c-2.059,0-3.998,1.829-4.911,1.144c-0.917-0.686-2.742,1.028-3.317,1.827
					c-0.567,0.8-2.171-0.684-3.767,1.144c-1.603,1.828-0.913,3.084-2.061,2.513c-1.143-0.574-2.97,2.856-3.769,2.63
					c-0.799-0.229-4.113,0-4.684,0.684c-0.571,0.685-0.915,0.799-2.742,0.685c-1.829-0.114-3.658,0.802-4.227,0.229
					c-0.574-0.57-2.97-0.229-3.887,1.145c-0.91,1.37,2.63-2.516-2.056-3.773c-4.683-1.257-2.284,1.941-3.887-0.912
					c-1.017-1.823-2.173-2.852-3.441-2.918l-0.213,0.173c0,0,0.685-2.17-3.315-2.057c-3.998,0.117-5.487,2.17-6.058,3.315
					l-0.236,0.115c-3.201,0-4.106,2.514-3.993,5.254c0.115,2.742,0.23,3.659-0.798,5.487c-1.027,1.828,2.4,1.828,1.258,3.77
					c-1.142,1.94-0.346,3.315,0.114,4.113c0.455,0.799-1.943,1.484-0.687,4.913c1.255,3.427-0.914,3.315-0.343,4.914
					c0.571,1.6,1.372,2.056,0.23,2.742c-1.143,0.685-1.714,5.369-0.456,7.541c1.256,2.173-0.8,3.999,2.399,6.628
					c3.198,2.628,6.739,1.032,6.854,0.228l-0.042,0.824c0.387,2.24,1.442,3.763,2.329,4.891c1.256,1.599,3.427,3.427,3.883,2.171
					c0.457-1.256-0.456-3.085-1.599-3.886c-0.908-0.635-2.171-1.342-2.887-3.604L27.574,67.013z"/>
			</g>
			<path id="XMLID_158_" style="fill:#D2AF52;" d="M59.844,45.169c4.471,6.076,6.625,5.257,5.184,6.625
				c-1.451,1.372-5.793-4.037-9.525-3.883c-3.733,0.154-1.751,2.361-11.427,4.495c-9.673,2.132-12.952,0.608-14.32-2.363
				c-1.371-2.971,0.133-5.28,0.837-6.856c0.219-0.492,0.343-1.625,0.684-2.041c1.046-1.261,4.208-2.566,5.711-3.215
				c2.399-1.033,7.388-2.708,9.967-3.096c0.804-0.124,2.482-0.257,3.253,0c1.049,0.346,2.5,2.28,3.544,2.64
				c1.219,0.416,3.656,0.076,4.951,1.445c0.81,0.857,2.014,3.621,1.32,5.718C59.978,44.773,59.762,45.056,59.844,45.169z"/>
		</g>
		<g id="XMLID_153_">
			<path id="XMLID_154_" style="fill:#D2AF52;" d="M48.722,97.446C21.858,97.446,0,75.589,0,48.723S21.858,0,48.722,0
				s48.722,21.857,48.722,48.723S75.587,97.446,48.722,97.446z M48.722,3.546c-24.91,0-45.177,20.267-45.177,45.177
				c0,24.911,20.267,45.178,45.177,45.178c24.908,0,45.175-20.267,45.175-45.178C93.897,23.813,73.63,3.546,48.722,3.546z"/>
		</g>
	</g>
</g>
<g id="Layer_1">
</g>
</svg>
