<?xml version="1.0" encoding="iso-8859-1"?>
<!-- Generator: Adobe Illustrator 19.0.0, SVG Export Plug-In . SVG Version: 6.00 Build 0)  -->
<svg version="1.1" xmlns="http://www.w3.org/2000/svg" xmlns:xlink="http://www.w3.org/1999/xlink" x="0px" y="0px"
	 viewBox="0 0 97.444 97.445" style="enable-background:new 0 0 97.444 97.445;" xml:space="preserve">
<g id="Layer_8">
	<g id="XMLID_75_">
		<g id="XMLID_126_">
			<path id="XMLID_131_" style="fill:#DB8FBD;" d="M59.264,71.125c0.668-0.608,0.251-2.7,0.348-3.597
				c0.058-0.52,0.188-1.554,0.256-2.07c0.097-0.75,0.414-2.993,0.414-2.993l0.256-1.783l0.253-1.434l0.412-1.877l0.288-0.955
				l-0.288,1.751v1.241l0.511,1.943l0.827,1.559c0,0,0.8,1.339,1.116,1.751c0.307,0.402,0.996,1.154,1.369,1.497
				c0.48,0.442,1.493,1.285,2.069,1.591c0.535,0.284,1.699,0.658,2.294,0.766c0.704,0.127,2.152,0.175,2.864,0.095
				c0.639-0.074,1.897-0.405,2.485-0.67c0.775-0.348,2.165-1.351,2.833-1.878c0.496-0.389,1.44-1.238,1.846-1.718
				c0.543-0.641,1.549-2.02,1.847-2.802c0.311-0.812,0.447-2.573,0.51-3.439c0.081-1.08,0.064-3.248,0.064-4.331
				c0-0.805-0.042-2.412-0.064-3.217c-0.024-0.828-0.077-2.488-0.191-3.311c-0.151-1.083-0.63-3.224-0.955-4.267
				c-0.328-1.05-1.157-3.093-1.655-4.075c-0.508-1.001-1.71-2.904-2.356-3.821c-0.617-0.876-1.961-2.546-2.676-3.341
				c-0.594-0.665-1.832-1.947-2.516-2.516c-0.675-0.565-2.11-1.612-2.897-2.007c-0.647-0.323-2.033-0.767-2.738-0.924
				c-0.548-0.122-1.669-0.25-2.229-0.255c-0.487-0.002-1.943,0.192-1.943,0.192s-1.808,0.685-2.354,1.018
				c-0.581,0.355-1.625,1.237-2.102,1.721c-0.324,0.325-0.864,1.073-1.148,1.433c-0.216,0.278-0.661,0.824-0.86,1.114
				c-0.36,0.535-1.068,1.628-1.303,2.23c-0.15,0.379-0.284,1.189-0.351,1.593c-0.07,0.435-0.168,1.311-0.191,1.75
				c-0.04,0.723-0.095,2.179,0,2.898c0.056,0.424,0.275,1.261,0.446,1.655c0.205,0.472,0.776,1.337,1.082,1.75
				c0.266,0.359,1.178,1.34,1.178,1.34l1.751,0.986l1.753,0.318l1.369-0.254l1.275-0.703l-1.02,1.179l-1.306,0.415l-2.418,0.445
				c0,0-1.602,0.101-2.134,0.063c-0.371-0.024-1.463-0.254-1.463-0.254s-0.544,0.156-0.703,0.254
				c-0.215,0.136-0.571,0.506-0.731,0.701c-0.367,0.453-0.995,1.444-1.242,1.973c-0.233,0.501-0.585,1.558-0.668,2.103
				c-0.035,0.219-0.115,0.702,0,0.891c0.191,0.312,0.965,0.53,1.303,0.667c0.62,0.255,1.899,0.652,2.548,0.796
				c0.582,0.131,1.764,0.287,2.358,0.32c0.325,0.018,0.978-0.028,1.306-0.032c0.055,0,0.186-0.044,0.223,0
				c0.415,0.479-0.205,1.897-0.352,2.516c-0.252,1.068-0.364,3.268-0.444,4.362c-0.051,0.682-0.091,2.053-0.129,2.738
				c-0.033,0.661-0.134,1.982-0.157,2.642c-0.028,0.804-0.014,2.412-0.032,3.217c-0.005,0.222-0.028,0.667-0.035,0.891
				c0,0.038-0.024,0.131,0,0.159C57.453,71.513,58.855,71.494,59.264,71.125z"/>
			<path id="XMLID_127_" style="fill:#DB8FBD;" d="M58.138,71.724L58.138,71.724c-0.274,0-0.955-0.038-1.296-0.376
				c-0.132-0.137-0.104-0.311-0.095-0.388c0.006-0.119,0.014-0.306,0.022-0.487c0.004-0.154,0.01-0.303,0.013-0.406
				c0.008-0.35,0.01-0.853,0.013-1.375c0.001-0.685,0.005-1.389,0.02-1.846c0.013-0.405,0.055-1.032,0.095-1.64
				c0.024-0.384,0.05-0.745,0.063-1.006c0.015-0.269,0.031-0.641,0.047-1.038c0.022-0.602,0.05-1.288,0.082-1.709
				c0.014-0.186,0.029-0.405,0.045-0.643c0.082-1.206,0.193-2.858,0.407-3.769c0.037-0.154,0.097-0.339,0.165-0.553
				c0.132-0.419,0.392-1.234,0.306-1.576c-0.013,0.001-0.024,0.001-0.033,0.001c-0.114,0.001-0.27,0.008-0.438,0.015
				c-0.319,0.015-0.673,0.028-0.888,0.017c-0.63-0.035-1.823-0.197-2.407-0.326c-0.677-0.15-1.965-0.552-2.598-0.812
				c-0.065-0.027-0.151-0.055-0.243-0.09c-0.548-0.198-1.018-0.388-1.211-0.707c-0.16-0.259-0.11-0.675-0.046-1.078
				c0.092-0.598,0.456-1.689,0.697-2.211c0.256-0.548,0.891-1.558,1.284-2.041c0.137-0.168,0.534-0.597,0.809-0.768
				c0.182-0.111,0.644-0.251,0.78-0.289l0.074-0.023l0.078,0.017c0.297,0.063,1.136,0.229,1.422,0.25
				c0.481,0.033,1.895-0.051,2.074-0.063l2.38-0.439l0.438-0.138l-0.68,0.125l-1.86-0.337l-1.872-1.074
				c-0.038-0.038-0.929-0.996-1.201-1.365c-0.324-0.434-0.904-1.313-1.119-1.813c-0.191-0.439-0.412-1.311-0.469-1.739
				c-0.107-0.815-0.029-2.468-0.001-2.955c0.024-0.449,0.119-1.335,0.193-1.786c0.095-0.572,0.22-1.278,0.369-1.657
				c0.257-0.659,1.019-1.821,1.338-2.289c0.156-0.233,0.451-0.604,0.687-0.901l0.186-0.232c0.072-0.092,0.161-0.211,0.26-0.342
				c0.293-0.385,0.655-0.862,0.91-1.119c0.456-0.461,1.526-1.378,2.159-1.765c0.568-0.346,2.336-1.017,2.411-1.045l0.069-0.019
				c0.058-0.006,1.453-0.193,1.968-0.193c0.607,0.005,1.741,0.137,2.313,0.264c0.675,0.148,2.107,0.594,2.81,0.949
				c0.821,0.411,2.272,1.472,2.959,2.046c0.69,0.576,1.924,1.849,2.55,2.546c0.685,0.767,2.039,2.443,2.695,3.374
				c0.616,0.872,1.846,2.808,2.381,3.859c0.508,1.005,1.338,3.05,1.674,4.124c0.33,1.059,0.81,3.198,0.967,4.318
				c0.11,0.785,0.163,2.285,0.195,3.344c0.022,0.823,0.064,2.43,0.064,3.226v0.467c0.001,1.168,0.006,2.933-0.065,3.884
				c-0.059,0.796-0.196,2.655-0.529,3.531c-0.34,0.887-1.429,2.331-1.901,2.892c-0.428,0.503-1.389,1.366-1.891,1.763
				c-0.702,0.552-2.107,1.559-2.9,1.918c-0.596,0.27-1.873,0.614-2.578,0.695c-0.24,0.028-0.561,0.041-0.936,0.041
				c-0.741,0-1.553-0.055-2.022-0.141c-0.606-0.108-1.804-0.486-2.383-0.795c-0.608-0.324-1.634-1.178-2.135-1.637
				c-0.39-0.357-1.084-1.12-1.407-1.536c-0.323-0.422-1.101-1.727-1.134-1.782l-0.863-1.641l-0.411-1.565l-0.154,0.869l-0.252,1.774
				l0,0c0,0-0.316,2.24-0.414,2.988c-0.07,0.535-0.198,1.558-0.256,2.064c-0.026,0.255-0.006,0.644,0.013,1.055
				c0.05,1.042,0.109,2.225-0.462,2.742C59.097,71.695,58.359,71.724,58.138,71.724z M57.38,70.964
				c0.146,0.072,0.417,0.131,0.758,0.131l0,0c0.453,0,0.803-0.103,0.914-0.202c0.35-0.319,0.296-1.433,0.256-2.244
				c-0.022-0.438-0.042-0.85-0.006-1.156c0.054-0.508,0.184-1.54,0.254-2.075c0.097-0.749,0.415-2.996,0.415-2.996l0.255-1.785
				l0.257-1.443l0.416-1.89l0.292-0.981l0.611,0.142l-0.283,1.727v1.175l0.49,1.868l0.812,1.527l0,0c0,0,0.785,1.315,1.084,1.708
				c0.3,0.389,0.971,1.123,1.333,1.456c0.501,0.46,1.484,1.269,2.007,1.545c0.506,0.271,1.652,0.636,2.198,0.734
				c0.434,0.078,1.202,0.131,1.91,0.131c0.351,0,0.649-0.014,0.864-0.037c0.632-0.074,1.861-0.403,2.393-0.644
				c0.7-0.315,2.039-1.265,2.767-1.84c0.471-0.371,1.407-1.207,1.801-1.674c0.58-0.687,1.525-2.01,1.794-2.71
				c0.302-0.79,0.439-2.651,0.49-3.352c0.069-0.928,0.065-2.68,0.064-3.838l-0.001-0.469c0-0.79-0.041-2.388-0.064-3.207
				c-0.018-0.666-0.07-2.435-0.187-3.277c-0.152-1.074-0.627-3.202-0.945-4.217c-0.321-1.031-1.147-3.064-1.636-4.026
				c-0.52-1.027-1.73-2.924-2.333-3.782c-0.627-0.889-1.982-2.564-2.653-3.316c-0.595-0.666-1.824-1.934-2.484-2.484
				c-0.679-0.567-2.086-1.591-2.836-1.966c-0.602-0.302-1.95-0.737-2.667-0.896c-0.529-0.119-1.621-0.244-2.162-0.247l0,0
				c-0.446,0-1.64,0.154-1.863,0.183c-0.248,0.093-1.794,0.689-2.271,0.981c-0.539,0.329-1.558,1.182-2.041,1.671
				c-0.224,0.227-0.575,0.686-0.855,1.056c-0.1,0.133-0.193,0.255-0.269,0.351l-0.187,0.236c-0.216,0.273-0.515,0.648-0.658,0.862
				c-0.238,0.351-1.032,1.548-1.273,2.166c-0.145,0.364-0.287,1.241-0.333,1.529c-0.07,0.426-0.165,1.293-0.188,1.717
				c-0.052,0.977-0.081,2.238-0.003,2.84c0.056,0.419,0.273,1.226,0.424,1.572c0.184,0.428,0.736,1.271,1.046,1.69
				c0.224,0.301,0.956,1.097,1.122,1.274l1.663,0.937l1.643,0.301l1.264-0.238l2.764-1.518l-2.223,2.569l-1.429,0.451l-2.457,0.451
				c-0.055,0.002-1.635,0.101-2.176,0.063c-0.332-0.023-1.168-0.191-1.428-0.243c-0.227,0.067-0.483,0.157-0.548,0.197
				c-0.172,0.106-0.503,0.445-0.655,0.632c-0.355,0.431-0.971,1.413-1.201,1.908c-0.223,0.483-0.565,1.507-0.643,2.018
				c-0.074,0.475-0.063,0.631-0.04,0.685c0.091,0.15,0.63,0.344,0.888,0.438c0.1,0.036,0.191,0.069,0.266,0.099
				c0.597,0.244,1.858,0.639,2.496,0.78c0.548,0.123,1.71,0.279,2.304,0.312c0.2,0.009,0.531-0.006,0.826-0.017
				c0.175-0.008,0.339-0.015,0.457-0.015c0.069-0.013,0.12-0.021,0.165-0.021c0.156,0,0.248,0.069,0.298,0.126
				c0.439,0.504,0.125,1.491-0.128,2.286c-0.063,0.195-0.122,0.379-0.151,0.51c-0.202,0.858-0.318,2.548-0.393,3.665
				c-0.017,0.239-0.032,0.461-0.046,0.648c-0.031,0.408-0.059,1.09-0.082,1.689c-0.015,0.398-0.031,0.775-0.046,1.043
				c-0.013,0.264-0.038,0.627-0.063,1.017c-0.038,0.575-0.081,1.224-0.095,1.621c-0.015,0.447-0.018,1.147-0.02,1.824
				c-0.002,0.526-0.004,1.034-0.012,1.386c-0.001,0.106-0.009,0.26-0.014,0.419C57.388,70.672,57.383,70.847,57.38,70.964z"/>
		</g>
		<g id="XMLID_80_">
			<path id="XMLID_125_" style="fill:#DB8FBD;" d="M38.179,71.125c-0.669-0.608-0.252-2.7-0.351-3.597
				c-0.058-0.52-0.188-1.554-0.253-2.07c-0.099-0.75-0.415-2.993-0.415-2.993l-0.256-1.783l-0.253-1.434l-0.413-1.877l-0.287-0.955
				l0.287,1.751v1.241l-0.51,1.943l-0.827,1.559c0,0-0.799,1.339-1.116,1.751c-0.307,0.402-0.995,1.154-1.369,1.497
				c-0.481,0.442-1.494,1.285-2.069,1.591c-0.535,0.284-1.698,0.658-2.294,0.766c-0.704,0.127-2.153,0.175-2.864,0.095
				c-0.639-0.074-1.899-0.405-2.484-0.67c-0.775-0.348-2.167-1.351-2.834-1.878c-0.497-0.389-1.442-1.238-1.847-1.718
				c-0.54-0.641-1.548-2.02-1.847-2.802c-0.311-0.812-0.445-2.573-0.508-3.439c-0.079-1.08-0.064-3.248-0.064-4.331
				c0-0.805,0.041-2.412,0.064-3.217c0.023-0.828,0.077-2.488,0.19-3.311c0.152-1.083,0.63-3.224,0.956-4.267
				c0.327-1.05,1.159-3.093,1.654-4.075c0.508-1.001,1.71-2.904,2.358-3.821c0.616-0.876,1.96-2.546,2.673-3.341
				c0.595-0.665,1.833-1.947,2.518-2.516c0.675-0.565,2.109-1.612,2.896-2.007c0.645-0.323,2.034-0.767,2.737-0.924
				c0.548-0.122,1.67-0.25,2.232-0.255c0.486-0.002,1.942,0.192,1.942,0.192s1.807,0.685,2.356,1.018
				c0.58,0.355,1.622,1.237,2.102,1.721c0.323,0.325,0.862,1.073,1.145,1.433c0.218,0.278,0.664,0.824,0.86,1.114
				c0.36,0.535,1.072,1.628,1.306,2.23c0.147,0.379,0.286,1.189,0.35,1.593c0.073,0.435,0.169,1.311,0.191,1.75
				c0.041,0.723,0.095,2.179,0,2.898c-0.055,0.424-0.275,1.261-0.445,1.655c-0.204,0.472-0.776,1.337-1.081,1.75
				c-0.266,0.359-1.18,1.34-1.18,1.34l-1.75,0.986l-1.753,0.318l-1.367-0.254l-1.275-0.703l1.019,1.179l1.306,0.415l2.42,0.445
				c0,0,1.602,0.101,2.134,0.063c0.37-0.024,1.465-0.254,1.465-0.254s0.543,0.156,0.702,0.254c0.213,0.136,0.57,0.506,0.732,0.701
				c0.366,0.453,0.993,1.444,1.239,1.973c0.234,0.501,0.586,1.558,0.67,2.103c0.035,0.219,0.117,0.702,0,0.891
				c-0.191,0.312-0.964,0.53-1.305,0.667c-0.617,0.255-1.897,0.652-2.548,0.796c-0.58,0.131-1.764,0.287-2.356,0.32
				c-0.328,0.018-0.979-0.028-1.306-0.032c-0.058,0-0.188-0.044-0.224,0c-0.416,0.479,0.205,1.897,0.35,2.516
				c0.253,1.068,0.365,3.268,0.447,4.362c0.051,0.682,0.09,2.053,0.128,2.738c0.034,0.661,0.137,1.982,0.159,2.642
				c0.028,0.804,0.015,2.412,0.032,3.217c0.005,0.222,0.028,0.667,0.032,0.891c0,0.038,0.028,0.131,0,0.159
				C39.988,71.513,38.586,71.494,38.179,71.125z"/>
			<path id="XMLID_81_" style="fill:#DB8FBD;" d="M39.302,71.724c-0.219,0-0.959-0.029-1.334-0.366
				c-0.571-0.517-0.515-1.7-0.464-2.742c0.021-0.411,0.041-0.8,0.012-1.055c-0.055-0.506-0.184-1.529-0.253-2.064
				c-0.097-0.748-0.415-2.988-0.415-2.988l-0.254-1.783l-0.152-0.86l-0.438,1.631l-0.826,1.561
				c-0.042,0.069-0.822,1.374-1.143,1.794c-0.323,0.419-1.018,1.182-1.408,1.539c-0.502,0.46-1.525,1.313-2.134,1.637
				c-0.579,0.309-1.778,0.687-2.385,0.795c-0.465,0.086-1.276,0.141-2.02,0.141c-0.375,0-0.697-0.013-0.936-0.041
				c-0.705-0.081-1.98-0.425-2.578-0.695c-0.79-0.359-2.197-1.366-2.897-1.918c-0.503-0.397-1.466-1.26-1.892-1.763
				c-0.474-0.561-1.562-2.005-1.902-2.892c-0.332-0.874-0.47-2.735-0.527-3.531c-0.072-0.951-0.067-2.717-0.064-3.884v-0.467
				c0-0.796,0.038-2.402,0.063-3.226c0.029-1.059,0.083-2.559,0.195-3.344c0.156-1.12,0.636-3.26,0.965-4.318
				c0.337-1.074,1.165-3.119,1.676-4.124c0.534-1.051,1.765-2.987,2.38-3.859c0.655-0.931,2.011-2.607,2.697-3.374
				c0.625-0.698,1.859-1.97,2.548-2.546c0.689-0.574,2.138-1.635,2.959-2.046c0.705-0.355,2.137-0.8,2.811-0.949
				c0.571-0.127,1.707-0.259,2.295-0.264c0.533,0,1.928,0.187,1.984,0.193l0.07,0.019c0.076,0.028,1.842,0.699,2.409,1.045
				c0.635,0.388,1.704,1.305,2.161,1.765c0.252,0.257,0.616,0.733,0.908,1.119c0.1,0.131,0.188,0.25,0.261,0.342l0.184,0.232
				c0.238,0.297,0.533,0.668,0.689,0.901c0.317,0.469,1.081,1.63,1.34,2.289c0.146,0.379,0.271,1.084,0.365,1.657
				c0.076,0.451,0.17,1.337,0.195,1.786c0.027,0.486,0.106,2.139-0.001,2.955c-0.058,0.428-0.278,1.3-0.469,1.739
				c-0.215,0.499-0.796,1.379-1.119,1.813c-0.273,0.369-1.164,1.326-1.201,1.365l-0.076,0.06l-1.797,1.014l-1.86,0.337l-0.679-0.125
				l0.438,0.138l2.38,0.439c0.181,0.012,1.591,0.096,2.075,0.063c0.287-0.02,1.124-0.187,1.421-0.25l0.078-0.017l0.073,0.023
				c0.137,0.038,0.599,0.178,0.78,0.289c0.276,0.172,0.672,0.601,0.809,0.768c0.393,0.483,1.029,1.493,1.284,2.041
				c0.243,0.522,0.606,1.613,0.695,2.187c0.067,0.428,0.117,0.844-0.044,1.102c-0.195,0.319-0.664,0.508-1.212,0.707
				c-0.093,0.034-0.177,0.063-0.241,0.09c-0.635,0.26-1.922,0.662-2.599,0.812c-0.585,0.129-1.777,0.292-2.407,0.326
				c-0.216,0.012-0.571-0.001-0.889-0.017c-0.168-0.008-0.324-0.014-0.438-0.015c-0.01,0-0.023-0.001-0.033-0.001
				c-0.086,0.339,0.174,1.157,0.305,1.576c0.07,0.214,0.127,0.399,0.166,0.553c0.211,0.912,0.325,2.563,0.407,3.769
				c0.015,0.238,0.032,0.457,0.045,0.643c0.032,0.421,0.059,1.107,0.082,1.709c0.017,0.397,0.032,0.769,0.046,1.038
				c0.014,0.261,0.038,0.622,0.063,1.006c0.04,0.608,0.081,1.235,0.096,1.64c0.017,0.457,0.018,1.161,0.019,1.846
				c0.005,0.522,0.006,1.026,0.013,1.375c0.003,0.102,0.01,0.252,0.014,0.406c0.009,0.181,0.017,0.367,0.018,0.487
				c0.014,0.077,0.041,0.251-0.091,0.385C40.26,71.688,39.577,71.724,39.302,71.724z M36.25,56.323l0.288,0.956l0.419,1.902
				l0.259,1.444l0.255,1.794c0,0.001,0.319,2.248,0.416,2.997c0.068,0.535,0.2,1.567,0.255,2.075
				c0.033,0.306,0.013,0.718-0.008,1.156c-0.04,0.812-0.093,1.925,0.257,2.244c0.11,0.1,0.458,0.202,0.912,0.202
				c0.339,0,0.613-0.059,0.759-0.131c-0.001-0.118-0.009-0.293-0.017-0.465c-0.005-0.159-0.013-0.312-0.014-0.416
				c-0.009-0.355-0.01-0.863-0.013-1.389c-0.001-0.677-0.004-1.378-0.019-1.824c-0.015-0.397-0.056-1.046-0.096-1.621
				c-0.024-0.389-0.049-0.753-0.061-1.017c-0.015-0.269-0.031-0.645-0.047-1.043c-0.023-0.599-0.05-1.28-0.081-1.689
				c-0.014-0.187-0.029-0.408-0.045-0.648c-0.077-1.118-0.191-2.808-0.393-3.665c-0.031-0.131-0.091-0.315-0.151-0.51
				c-0.254-0.795-0.567-1.782-0.131-2.284c0.051-0.059,0.143-0.128,0.298-0.128c0.047,0,0.099,0.008,0.146,0.015
				c0.138,0.005,0.301,0.013,0.477,0.02c0.291,0.01,0.627,0.026,0.826,0.017c0.593-0.033,1.758-0.189,2.306-0.312
				c0.639-0.141,1.899-0.535,2.496-0.78c0.073-0.029,0.164-0.063,0.265-0.099c0.259-0.093,0.796-0.288,0.891-0.443
				c0.019-0.049,0.033-0.205-0.038-0.654c-0.082-0.536-0.424-1.561-0.646-2.043c-0.23-0.494-0.849-1.476-1.201-1.909
				c-0.152-0.186-0.484-0.525-0.655-0.631c-0.064-0.04-0.323-0.131-0.548-0.197c-0.261,0.052-1.096,0.22-1.428,0.243
				c-0.544,0.038-2.121-0.06-2.178-0.063l-0.036-0.006l-2.457-0.453l-1.392-0.442l-2.221-2.569l2.763,1.518l1.262,0.238l1.643-0.301
				l1.663-0.937c0.165-0.177,0.899-0.973,1.124-1.274c0.307-0.419,0.86-1.262,1.043-1.69c0.152-0.346,0.369-1.154,0.426-1.572
				c0.078-0.602,0.049-1.863-0.005-2.838c-0.022-0.425-0.117-1.292-0.187-1.718c-0.047-0.288-0.19-1.165-0.333-1.529
				c-0.241-0.618-1.035-1.815-1.273-2.169c-0.143-0.211-0.442-0.586-0.658-0.859l-0.189-0.236c-0.074-0.096-0.166-0.218-0.268-0.351
				c-0.28-0.37-0.63-0.83-0.853-1.056c-0.484-0.489-1.503-1.342-2.043-1.671c-0.476-0.292-2.02-0.887-2.27-0.981
				c-0.223-0.029-1.419-0.183-1.849-0.183c-0.557,0.002-1.649,0.128-2.178,0.247c-0.716,0.159-2.065,0.594-2.664,0.896
				c-0.751,0.375-2.158,1.399-2.84,1.966c-0.658,0.549-1.885,1.818-2.481,2.484c-0.671,0.751-2.027,2.427-2.653,3.316
				c-0.604,0.858-1.813,2.755-2.333,3.782c-0.489,0.963-1.313,2.996-1.635,4.026c-0.319,1.015-0.795,3.143-0.945,4.217
				c-0.119,0.842-0.169,2.612-0.188,3.277c-0.026,0.819-0.064,2.417-0.064,3.207l-0.001,0.469c-0.001,1.159-0.005,2.91,0.064,3.838
				c0.052,0.7,0.189,2.562,0.49,3.352c0.268,0.7,1.214,2.023,1.794,2.71c0.394,0.467,1.33,1.303,1.8,1.674
				c0.726,0.575,2.066,1.525,2.769,1.84c0.53,0.241,1.759,0.57,2.392,0.644c0.215,0.023,0.513,0.037,0.863,0.037
				c0.709,0,1.477-0.053,1.91-0.131c0.547-0.097,1.694-0.462,2.199-0.734c0.521-0.276,1.506-1.086,2.006-1.545
				c0.362-0.333,1.033-1.066,1.334-1.456c0.3-0.393,1.086-1.708,1.095-1.722l0.802-1.513l0.489-1.868v-1.175l-0.282-1.727
				L36.25,56.323z"/>
		</g>
		<g id="XMLID_76_">
			<path id="XMLID_77_" style="fill:#DB8FBD;" d="M48.722,97.445C21.858,97.445,0,75.588,0,48.722C0,21.855,21.858,0,48.722,0
				s48.722,21.855,48.722,48.722C97.444,75.588,75.587,97.445,48.722,97.445z M48.722,3.545c-24.91,0-45.177,20.268-45.177,45.177
				c0,24.911,20.267,45.177,45.177,45.177c24.908,0,45.175-20.266,45.175-45.177C93.897,23.813,73.63,3.545,48.722,3.545z"/>
		</g>
	</g>
</g>
<g id="Layer_1">
</g>
</svg>
