<?xml version="1.0" encoding="iso-8859-1"?>
<!-- Generator: Adobe Illustrator 19.0.0, SVG Export Plug-In . SVG Version: 6.00 Build 0)  -->
<svg version="1.1" xmlns="http://www.w3.org/2000/svg" xmlns:xlink="http://www.w3.org/1999/xlink" x="0px" y="0px"
	 viewBox="0 0 97.444 97.445" style="enable-background:new 0 0 97.444 97.445;" xml:space="preserve">
<g id="Layer_2">
	<g id="XMLID_228_">
		<g id="XMLID_233_">
			<polygon id="XMLID_237_" style="fill:#867743;" points="23.62,75.702 26.337,75.37 28.224,74.567 30.412,73.681 32.184,72.624 
				33.875,70.742 34.514,69.964 35.842,68.939 37.009,68.137 38.144,67.804 40.139,67.359 43.272,66.805 45.684,66.143 
				47.649,65.224 49.616,64.146 51.005,62.787 51.778,61.346 52.221,59.739 52.221,59.075 53.025,59.739 53.747,60.878 
				54.326,62.373 54.715,63.841 55.465,65.753 56.021,66.723 56.629,66.945 56.99,66.917 56.99,66.307 56.794,65.365 56.71,64.532 
				56.683,63.452 56.99,61.955 56.99,60.431 56.574,59.49 56.155,58.88 57.21,59.13 59.564,59.21 62.031,58.63 63.336,58.075 
				66.049,56.912 68.85,55.305 71.288,53.67 73.257,51.313 74.53,49.291 75.862,47.352 77.581,44.882 78.744,42.75 80.132,40.533 
				81.626,38.26 83.401,36.71 84.923,35.851 86.672,35.351 88.166,35.351 87.973,34.465 87.447,33.55 85.772,32.523 83.291,31.663 
				80.906,30.888 77.97,30.211 76.391,29.892 73.563,29.752 71.969,29.752 68.99,30.181 66.745,30.57 64.305,31.002 61.604,31.238 
				59.399,31.457 56.727,31.457 54.51,31.098 53.083,30.778 50.338,29.752 47.483,28.603 45.321,27.994 43.298,27.121 
				41.193,26.566 38.933,26.47 36.272,26.551 33.362,26.733 31.493,27.091 28.595,27.826 25.99,28.618 23.053,29.739 21.142,30.863 
				19.341,31.97 17.968,33.313 17.178,34.421 16.568,35.671 16.098,37.388 15.931,38.734 16,42.087 16.264,44.012 16.692,46.852 
				17.108,49.846 17.345,53.143 17.607,57.647 18.233,61.429 18.26,65.697 18.535,68.316 19.16,71.268 19.716,73.333 20.823,75.049 
				22.097,75.632 			"/>
			<path id="XMLID_234_" style="fill:#867743;" d="M23.636,76.089l-1.631-0.074l-1.444-0.662l-1.219-1.92l-0.554-2.066l-0.634-3.012
				l-0.279-2.619l-0.029-4.275l-0.621-3.791l-0.262-4.505l-0.237-3.292l-0.414-2.97l-0.426-2.834l-0.268-1.977l-0.072-3.379
				l0.179-1.426l0.495-1.787l0.644-1.302l0.836-1.161l1.439-1.395l1.8-1.108l1.977-1.155l2.938-1.125l2.632-0.798l2.913-0.739
				l1.94-0.373l2.911-0.179l2.671-0.085l2.369,0.11l2.161,0.573l2.001,0.863l2.176,0.617l2.852,1.15l2.712,1.013l1.398,0.315
				l2.166,0.349h2.625l2.184-0.22l2.708-0.234l4.651-0.815l3.046-0.436h1.594l2.902,0.148l1.58,0.318l2.947,0.682l2.416,0.784
				l2.564,0.896l1.76,1.078l0.62,1.109l0.296,1.357h-1.922l-1.651,0.471l-1.451,0.815l-1.704,1.491l-1.468,2.23l-1.379,2.21
				l-1.175,2.15l-3.048,4.405l-1.296,2.052l-2.051,2.426l-2.437,1.637l-2.863,1.643l-4.081,1.737L59.604,59.6l-2.482-0.096
				l-0.137-0.032l0.388,0.878l-0.006,1.683l-0.296,1.452l0.027,1.038l0.077,0.785l0.198,1v0.967l-0.798,0.061l-0.819-0.297
				l-0.652-1.146l-0.762-1.954l-0.38-1.446l-0.562-1.44l-0.666-1.057l-0.15-0.12l-0.466,1.654l-0.846,1.533l-1.47,1.421l-1.968,1.08
				l-2.051,0.949l-2.411,0.664l-3.165,0.562l-1.979,0.44l-1.055,0.31l-1.112,0.77l-1.28,0.984l-0.608,0.744l-1.79,1.972
				l-1.829,1.079l-2.188,0.885l-1.982,0.828L23.636,76.089z M22.189,75.253l1.419,0.063l2.63-0.321l1.833-0.783l2.17-0.878
				l1.696-1.007l1.653-1.839l0.687-0.826l1.332-1.027l1.289-0.867l1.138-0.332l2.02-0.45l3.149-0.557l2.344-0.65l1.937-0.901
				l1.899-1.043l1.307-1.281l0.727-1.351l0.417-1.514v-1.431l1.514,1.279l0.753,1.202l0.594,1.536l0.385,1.447l0.731,1.866
				l0.467,0.823l0.324,0.117v-0.179l-0.192-0.945l-0.086-0.83l-0.029-1.155l0.307-1.498v-1.407l-0.371-0.835l-0.955-1.4l1.979,0.469
				l2.27,0.081l2.381-0.565l3.969-1.696l2.781-1.595l2.37-1.589l1.915-2.293l1.262-2.001l1.337-1.955l1.712-2.451l1.154-2.114
				l1.397-2.239l1.568-2.358l1.839-1.595l1.611-0.895l1.85-0.515h1.017l-0.079-0.36l-0.446-0.778l-1.559-0.954l-2.44-0.844
				l-2.375-0.775l-2.907-0.669l-1.541-0.312l-2.797-0.137h-1.545l-2.955,0.428l-4.672,0.816l-2.735,0.239l-2.238,0.224l-2.737-0.005
				l-2.215-0.361l-1.501-0.335l-2.742-1.028l-2.845-1.146l-2.192-0.622l-1.993-0.862l-2.042-0.536l-2.215-0.096l-2.635,0.085
				l-2.873,0.177l-1.843,0.355l-2.874,0.732L26.1,28.985l-2.88,1.103l-1.885,1.107l-1.757,1.082l-1.316,1.29l-0.751,1.053
				l-0.579,1.188l-0.457,1.656l-0.16,1.289l0.069,3.302l0.259,1.908l0.431,2.833l0.416,2.998l0.24,3.321l0.261,4.49l0.625,3.822
				l0.027,4.27l0.273,2.559l0.621,2.931l0.534,1.987l1.015,1.573L22.189,75.253z"/>
		</g>
		<g id="XMLID_229_">
			<path id="XMLID_230_" style="fill:#867743;" d="M48.722,97.445C21.858,97.445,0,75.587,0,48.721C0,21.856,21.858,0,48.722,0
				s48.722,21.856,48.722,48.721C97.444,75.587,75.587,97.445,48.722,97.445z M48.722,3.546c-24.91,0-45.177,20.266-45.177,45.175
				c0,24.912,20.267,45.178,45.177,45.178c24.908,0,45.175-20.267,45.175-45.178C93.897,23.813,73.63,3.546,48.722,3.546z"/>
		</g>
	</g>
</g>
<g id="Layer_1">
</g>
</svg>
