<?xml version="1.0" encoding="iso-8859-1"?>
<!-- Generator: Adobe Illustrator 19.0.0, SVG Export Plug-In . SVG Version: 6.00 Build 0)  -->
<svg version="1.1" xmlns="http://www.w3.org/2000/svg" xmlns:xlink="http://www.w3.org/1999/xlink" x="0px" y="0px"
	 viewBox="0 0 97.445 97.445" style="enable-background:new 0 0 97.445 97.445;" xml:space="preserve">
<g id="Layer_3">
	<g id="XMLID_94_">
		<g id="XMLID_99_">
			<g id="XMLID_110_">
				<path id="XMLID_114_" style="fill:#C3BE7D;" d="M47.218,11.178c0,0,1.346-0.924,2.002-0.924c0.658,0,2.004,0.924,2.004,0.924
					v18.679l1.045,1.378l-1.39,3.609l-1.228-0.408l-1.996,1.29l-1.253-3.653L47.218,31V11.178z"/>
				<path id="XMLID_111_" style="fill:#C3BE7D;" d="M47.466,36.269l-1.463-4.259l0.862-1.128V10.993l0.152-0.106
					c0.241-0.165,1.472-0.984,2.203-0.984c0.732,0,1.965,0.819,2.203,0.984l0.154,0.106v18.744l1.093,1.439l-1.582,4.108
					l-1.389-0.46L47.466,36.269z M46.794,32.137l1.049,3.046l1.758-1.138l1.07,0.355l1.197-3.111l-0.996-1.315V11.367
					c-0.53-0.343-1.308-0.759-1.652-0.759c-0.342,0-1.12,0.414-1.65,0.759v19.753L46.794,32.137z"/>
			</g>
			<g id="XMLID_105_">
				<path id="XMLID_109_" style="fill:#C3BE7D;" d="M51.261,49.027c0-1.896,0.275-5.707,0-7.583
					c-0.128-0.85-0.967-2.432-1.001-3.289c-0.047-1.171,0.652-3.46,1.001-4.579c0.252-0.812,1.095-2.319,1.288-3.147
					c0.613-2.655,0.156-8.208,0.716-10.874c0.276-1.338,0.804-4.278,1.859-5.151c0.673-0.56,2.557-0.76,3.434-0.715
					c1.346,0.068,3.901,1.231,5.008,2.004c1.579,1.102,3.941,4.226,5.149,5.723c1.611,1.991,4.656,6.125,6.011,8.297
					c1.008,1.616,2.87,4.956,3.577,6.727c0.497,1.241,1.028,3.875,1.43,5.15c0.355,1.122,1.26,3.302,1.572,4.435
					c0.58,2.075,1.338,6.323,1.718,8.442c0.408,2.28,1.365,6.841,1.433,9.156c0.063,2.228,0.457,7.073-0.858,8.871
					c-0.807,1.099-3.651,2.08-5.011,2.148c-1.875,0.089-5.441-1.52-7.154-2.291c-1.403-0.632-3.825-2.679-5.291-3.147
					c-1.232-0.394-3.889-0.148-5.152-0.429c-1.193-0.269-3.662-0.906-4.578-1.716c-1.214-1.07-2.577-4.165-3.005-5.725
					c-0.182-0.658,0.067-2.08-0.142-2.733L51.261,49.027z"/>
				<path id="XMLID_106_" style="fill:#C3BE7D;" d="M78.435,74.996c-1.983,0-5.46-1.566-7.128-2.316
					c-0.662-0.298-1.475-0.848-2.339-1.431c-1.06-0.719-2.16-1.461-2.933-1.712c-0.627-0.198-1.696-0.222-2.732-0.246
					c-0.917-0.019-1.782-0.039-2.39-0.175c-1.354-0.304-3.765-0.94-4.734-1.796c-1.315-1.157-2.704-4.401-3.112-5.893
					c-0.101-0.371-0.09-0.881-0.076-1.42c0.014-0.501,0.027-1.02-0.064-1.298l-0.008-0.036l-2.011-9.644
					c0-0.58,0.026-1.344,0.053-2.153c0.063-1.828,0.141-4.103-0.05-5.377c-0.05-0.346-0.252-0.876-0.447-1.387
					c-0.264-0.693-0.538-1.412-0.557-1.942c-0.047-1.118,0.52-3.098,1.017-4.698c0.12-0.381,0.351-0.886,0.594-1.419
					c0.291-0.627,0.59-1.279,0.686-1.704c0.309-1.323,0.339-3.455,0.373-5.517c0.032-2.066,0.064-4.017,0.343-5.349l0.068-0.34
					c0.315-1.543,0.842-4.126,1.911-5.01c0.78-0.647,2.763-0.844,3.676-0.796c1.449,0.072,4.085,1.292,5.191,2.066
					c1.392,0.971,3.34,3.423,4.632,5.045c0.218,0.276,0.417,0.529,0.591,0.746c1.691,2.09,4.696,6.184,6.034,8.332
					c1.024,1.637,2.893,4.995,3.608,6.782c0.306,0.764,0.611,1.991,0.906,3.179c0.193,0.767,0.374,1.492,0.534,1.995
					c0.151,0.481,0.406,1.163,0.68,1.885c0.35,0.938,0.713,1.909,0.896,2.562c0.576,2.078,1.319,6.214,1.716,8.434l0.008,0.039
					c0.078,0.444,0.179,0.973,0.29,1.556c0.46,2.432,1.091,5.762,1.146,7.653c0.008,0.27,0.022,0.579,0.034,0.917
					c0.106,2.585,0.269,6.495-0.961,8.171c-0.88,1.208-3.806,2.223-5.273,2.293C78.55,74.995,78.492,74.996,78.435,74.996z
					 M53.606,58.51c0.119,0.394,0.104,0.938,0.09,1.516c-0.012,0.465-0.022,0.947,0.05,1.215c0.442,1.612,1.792,4.576,2.898,5.549
					c0.908,0.803,3.614,1.456,4.423,1.637c0.539,0.121,1.407,0.141,2.251,0.159c1.087,0.024,2.208,0.049,2.929,0.28
					c0.872,0.278,2.015,1.05,3.117,1.797c0.839,0.566,1.627,1.1,2.214,1.363c1.687,0.759,5.199,2.351,6.991,2.259
					c1.28-0.061,4.025-1.023,4.74-2.002c1.084-1.481,0.922-5.39,0.824-7.727c-0.014-0.341-0.027-0.653-0.033-0.923
					c-0.054-1.838-0.679-5.138-1.136-7.544c-0.11-0.586-0.211-1.116-0.289-1.562l-0.009-0.04c-0.365-2.052-1.133-6.323-1.7-8.368
					c-0.174-0.623-0.531-1.58-0.88-2.504c-0.275-0.729-0.534-1.42-0.691-1.919c-0.164-0.522-0.348-1.26-0.544-2.038
					c-0.275-1.11-0.589-2.368-0.878-3.087c-0.7-1.751-2.54-5.055-3.549-6.671c-1.305-2.091-4.34-6.23-5.984-8.26
					c-0.177-0.22-0.379-0.474-0.599-0.75c-1.262-1.593-3.172-3.996-4.48-4.908c-1.054-0.735-3.542-1.874-4.821-1.938
					c-0.072-0.002-0.149-0.006-0.234-0.006c-1.054,0-2.481,0.246-2.959,0.64c-0.876,0.725-1.392,3.252-1.668,4.609l-0.07,0.341
					c-0.264,1.267-0.294,3.275-0.326,5.217c-0.033,2.098-0.067,4.266-0.392,5.665c-0.113,0.495-0.429,1.178-0.731,1.84
					c-0.234,0.511-0.456,0.994-0.562,1.333c-0.282,0.909-1.031,3.32-0.986,4.461c0.017,0.414,0.279,1.107,0.512,1.718
					c0.218,0.573,0.424,1.114,0.486,1.534c0.198,1.34,0.123,3.551,0.056,5.505c-0.027,0.785-0.052,1.53-0.054,2.093L53.606,58.51z"
					/>
			</g>
			<g id="XMLID_100_">
				<path id="XMLID_104_" style="fill:#C3BE7D;" d="M47.035,49.027c0-1.896-0.275-5.707,0-7.583c0.129-0.85,0.971-2.432,1.002-3.289
					c0.047-1.171-0.653-3.46-1.002-4.579c-0.25-0.812-1.095-2.319-1.284-3.147c-0.616-2.655-0.159-8.208-0.717-10.874
					c-0.28-1.338-0.805-4.278-1.859-5.151c-0.676-0.56-2.559-0.76-3.435-0.715c-1.347,0.068-3.901,1.231-5.006,2.004
					c-1.579,1.102-3.943,4.226-5.152,5.723c-1.611,1.991-4.654,6.125-6.009,8.297c-1.009,1.616-2.869,4.956-3.578,6.727
					c-0.494,1.241-1.028,3.875-1.431,5.15c-0.353,1.122-1.256,3.302-1.571,4.435c-0.577,2.075-1.337,6.323-1.718,8.442
					c-0.408,2.28-1.364,6.841-1.429,9.156c-0.068,2.228-0.458,7.073,0.858,8.871c0.802,1.099,3.646,2.08,5.006,2.148
					c1.877,0.089,5.444-1.52,7.154-2.291c1.403-0.632,3.827-2.679,5.295-3.147c1.228-0.394,3.887-0.148,5.149-0.429
					c1.195-0.269,3.665-0.906,4.579-1.716c1.21-1.07,2.577-4.165,3.005-5.725c0.182-0.658-0.068-2.08,0.142-2.733L47.035,49.027z"/>
				<path id="XMLID_101_" style="fill:#C3BE7D;" d="M19.863,74.996L19.863,74.996c-0.058,0-0.115-0.001-0.172-0.004
					c-1.467-0.07-4.395-1.085-5.275-2.293c-1.228-1.676-1.066-5.586-0.96-8.171c0.014-0.339,0.027-0.647,0.034-0.917
					c0.054-1.891,0.685-5.221,1.146-7.653c0.111-0.583,0.211-1.113,0.289-1.556l0.009-0.039c0.398-2.22,1.138-6.356,1.716-8.434
					c0.182-0.652,0.547-1.623,0.898-2.562c0.271-0.722,0.527-1.404,0.68-1.885c0.159-0.503,0.339-1.228,0.53-1.995
					c0.298-1.188,0.603-2.415,0.912-3.179c0.713-1.787,2.584-5.145,3.604-6.782c1.339-2.145,4.343-6.242,6.035-8.332
					c0.175-0.218,0.374-0.47,0.594-0.746c1.288-1.621,3.236-4.074,4.628-5.045c1.11-0.774,3.745-1.994,5.191-2.066
					c0.919-0.047,2.897,0.149,3.677,0.796c1.069,0.884,1.595,3.466,1.91,5.01l0.072,0.34c0.277,1.332,0.309,3.283,0.339,5.349
					c0.033,2.061,0.065,4.193,0.374,5.517c0.099,0.425,0.396,1.077,0.685,1.704c0.246,0.533,0.475,1.038,0.595,1.419
					c0.497,1.6,1.063,3.58,1.015,4.699c-0.019,0.529-0.292,1.247-0.556,1.94c-0.195,0.511-0.397,1.041-0.447,1.387
					c-0.191,1.275-0.113,3.549-0.051,5.377c0.027,0.808,0.054,1.573,0.054,2.153L47.383,49.1l-2.014,9.608
					c-0.09,0.278-0.075,0.798-0.063,1.298c0.014,0.54,0.026,1.05-0.076,1.42c-0.408,1.492-1.799,4.736-3.112,5.894
					c-0.968,0.855-3.381,1.491-4.734,1.795c-0.607,0.136-1.472,0.156-2.389,0.175c-1.037,0.024-2.109,0.048-2.731,0.246
					c-0.776,0.251-1.874,0.993-2.938,1.712c-0.862,0.583-1.673,1.132-2.316,1.422C25.319,73.433,21.845,74.996,19.863,74.996z
					 M39.993,14.036c-0.084,0-0.166,0.003-0.235,0.006c-1.28,0.064-3.768,1.203-4.823,1.94c-1.307,0.911-3.216,3.315-4.482,4.907
					c-0.218,0.276-0.421,0.53-0.597,0.75c-1.645,2.032-4.681,6.17-5.985,8.26c-1.006,1.616-2.849,4.92-3.548,6.67
					c-0.289,0.721-0.602,1.979-0.878,3.089c-0.196,0.778-0.38,1.516-0.545,2.038c-0.156,0.499-0.416,1.19-0.69,1.919
					c-0.346,0.924-0.705,1.881-0.88,2.504c-0.567,2.046-1.334,6.317-1.7,8.368l-0.009,0.04c-0.079,0.446-0.178,0.976-0.291,1.562
					c-0.458,2.406-1.082,5.705-1.134,7.544c-0.006,0.27-0.02,0.582-0.033,0.923c-0.097,2.337-0.259,6.247,0.824,7.727
					c0.716,0.979,3.459,1.942,4.738,2.002c1.787,0.085,5.308-1.5,6.976-2.251c0.603-0.271,1.392-0.806,2.229-1.372
					c1.104-0.748,2.247-1.52,3.117-1.797c0.721-0.232,1.845-0.257,2.931-0.28c0.842-0.018,1.714-0.038,2.252-0.159
					c0.809-0.181,3.514-0.834,4.421-1.636c1.107-0.975,2.457-3.939,2.898-5.551c0.076-0.268,0.061-0.75,0.051-1.215
					c-0.015-0.577-0.029-1.122,0.09-1.516l1.993-9.518c0-0.563-0.027-1.308-0.054-2.093c-0.066-1.954-0.142-4.165,0.056-5.504
					c0.063-0.421,0.269-0.962,0.488-1.535c0.23-0.611,0.495-1.304,0.511-1.718c0.047-1.141-0.704-3.552-0.986-4.461
					c-0.106-0.339-0.328-0.821-0.561-1.333c-0.303-0.661-0.617-1.344-0.732-1.84c-0.325-1.399-0.359-3.567-0.391-5.665
					c-0.029-1.942-0.063-3.95-0.328-5.217l-0.069-0.341c-0.278-1.357-0.794-3.884-1.671-4.609
					C42.471,14.282,41.041,14.036,39.993,14.036z"/>
			</g>
		</g>
		<g id="XMLID_95_">
			<path id="XMLID_96_" style="fill:#C3BE7D;" d="M48.722,97.445C21.858,97.445,0,75.589,0,48.722C0,21.856,21.858,0,48.722,0
				c26.866,0,48.723,21.856,48.723,48.722C97.445,75.589,75.588,97.445,48.722,97.445z M48.722,3.546
				c-24.91,0-45.176,20.267-45.176,45.176c0,24.91,20.266,45.175,45.176,45.175c24.908,0,45.176-20.265,45.176-45.175
				C93.898,23.813,73.63,3.546,48.722,3.546z"/>
		</g>
	</g>
</g>
<g id="Layer_1">
</g>
</svg>
