<?xml version="1.0" encoding="iso-8859-1"?>
<!-- Generator: Adobe Illustrator 19.0.0, SVG Export Plug-In . SVG Version: 6.00 Build 0)  -->
<svg version="1.1" xmlns="http://www.w3.org/2000/svg" xmlns:xlink="http://www.w3.org/1999/xlink" x="0px" y="0px"
	 viewBox="0 0 98.186 98.186" style="enable-background:new 0 0 98.186 98.186;" xml:space="preserve">
<g id="Layer_1_1_">
	<g id="XMLID_115_">
		<g id="XMLID_120_">
			<path id="XMLID_124_" style="fill:#E1A698;" d="M61.434,82.7l7.548-1.93l-3.004-4.31l-1.44-2.313l-1.073-1.987l-0.637-1.669
				l-0.108-0.697l1.246,0.528c0,0,1.026,0.566,1.405,0.621c0.49,0.07,1.474-0.197,1.968-0.267c0.738-0.104,2.227-0.281,2.955-0.439
				c0.891-0.188,2.652-0.669,3.507-0.975c1.103-0.393,3.284-1.274,4.281-1.887c0.947-0.585,2.62-2.071,3.429-2.837
				c0.739-0.697,2.248-2.101,2.758-2.979c0.44-0.761,0.937-2.49,1.045-3.364c0.102-0.816-0.004-2.484-0.179-3.288
				c-0.13-0.601-0.591-1.755-0.902-2.285c-0.268-0.455-1.042-1.203-1.344-1.641c-0.068-0.097-0.266-0.298-0.241-0.413
				c0.119-0.521,1.42-0.802,1.754-1.216c0.275-0.336,0.641-1.168,0.676-1.602c0.023-0.292-0.309-0.848-0.292-1.141
				c0.046-0.719,0.977-1.964,1.062-2.681c0.043-0.358-0.137-1.073-0.209-1.429c-0.09-0.465-0.351-1.378-0.467-1.836
				c-0.073-0.287-0.145-0.888-0.293-1.144c-0.104-0.175-0.508-0.376-0.593-0.562c-0.227-0.492-0.022-1.627-0.103-2.164
				c-0.05-0.331-0.223-0.98-0.33-1.298c-0.107-0.306-0.362-0.905-0.519-1.189c-0.197-0.366-0.593-1.115-0.908-1.384
				c-0.181-0.153-0.716-0.202-0.867-0.387c-0.36-0.444-0.294-1.691-0.466-2.235c-0.126-0.403-0.458-1.182-0.66-1.552
				c-0.172-0.31-0.551-0.921-0.801-1.17c-0.295-0.291-1.002-0.74-1.374-0.919c-0.333-0.164-1.112-0.242-1.415-0.459
				c-0.693-0.501-1.396-2.185-2.028-2.762c-0.453-0.412-1.566-0.958-2.096-1.263c-0.441-0.254-1.351-0.707-1.783-0.974
				c-0.823-0.508-2.349-1.71-3.184-2.203c-0.373-0.219-1.147-0.6-1.544-0.769c-0.555-0.232-1.694-0.624-2.269-0.795
				c-0.302-0.09-0.929-0.204-1.222-0.324c-0.698-0.286-1.925-1.222-2.63-1.496c-0.605-0.235-1.896-0.438-2.539-0.515
				c-0.406-0.048-1.223-0.093-1.629-0.059c-0.632,0.05-1.887,0.309-2.491,0.504c-0.212,0.067-0.588,0.338-0.808,0.365
				c-0.475,0.059-1.407-0.294-1.885-0.339c-0.521-0.048-1.574-0.035-2.094-0.021c-0.432,0.014-1.291,0.072-1.717,0.123
				c-0.525,0.061-1.562,0.26-2.081,0.346c-0.509,0.084-1.53,0.23-2.03,0.334c-0.566,0.119-1.678,0.43-2.238,0.572
				c-0.324,0.082-0.977,0.213-1.291,0.33c-0.379,0.144-1.054,0.637-1.45,0.741c-0.43,0.115-1.334,0.053-1.778,0.085
				c-0.414,0.028-1.251,0.055-1.654,0.157c-0.583,0.148-1.722,0.6-2.219,0.938c-0.348,0.237-0.871,0.913-1.175,1.2
				c-0.157,0.148-0.453,0.481-0.65,0.562c-0.561,0.233-1.821,0.065-2.419,0.169c-0.7,0.124-2.09,0.487-2.739,0.78
				c-0.276,0.125-0.771,0.486-1.022,0.659c-0.359,0.244-1.068,0.748-1.406,1.019c-0.449,0.361-1.305,1.134-1.726,1.527
				c-0.423,0.393-1.291,1.164-1.652,1.613c-0.115,0.145-0.271,0.491-0.395,0.63c-0.059,0.068-0.205,0.184-0.284,0.231
				c-0.317,0.189-1.067,0.341-1.366,0.561c-0.4,0.297-0.989,1.128-1.272,1.543c-0.461,0.683-1.311,2.116-1.588,2.893
				c-0.128,0.359-0.29,1.119-0.279,1.499c0.009,0.199,0.294,0.597,0.199,0.771c-0.195,0.342-1.191,0.221-1.499,0.461
				c-0.472,0.372-0.948,1.542-1.244,2.065c-0.222,0.392-0.659,1.178-0.839,1.589c-0.143,0.331-0.393,1.011-0.469,1.365
				c-0.07,0.318-0.146,0.975-0.119,1.3c0.045,0.557,0.415,1.62,0.551,2.16c0.075,0.281,0.152,0.864,0.285,1.118
				c0.089,0.159,0.462,0.36,0.484,0.537c0.058,0.473-0.74,1.233-0.893,1.686c-0.115,0.343-0.254,1.073-0.241,1.436
				c0.021,0.45,0.285,1.321,0.445,1.74c0.102,0.259,0.369,0.744,0.515,0.978c0.49,0.798,1.544,2.356,2.177,3.043
				c0.357,0.381,1.164,1.04,1.589,1.34c0.731,0.52,2.297,1.408,3.087,1.831c0.678,0.362,2.052,1.064,2.776,1.327
				c1.002,0.368,3.074,0.971,4.14,1.085c0.586,0.063,1.769-0.028,2.355-0.099c1.197-0.151,3.537-0.763,4.72-0.994
				c0.175-0.036,0.56-0.233,0.707-0.129c0.49,0.341,0.241,1.781,0.415,2.354c0.102,0.323,0.368,0.954,0.558,1.235
				c0.237,0.359,0.857,0.979,1.192,1.256c0.435,0.362,1.378,1.02,1.903,1.234c0.751,0.306,2.389,0.455,3.181,0.642
				c0.394,0.093,1.158,0.401,1.562,0.42c0.578,0.028,1.726-0.224,2.287-0.373c0.533-0.141,2.002-0.75,2.076-0.77
				c0.075-0.017,0.747-0.274,0.965-0.166c0.827,0.409,1.184,2.518,1.732,3.262c0.475,0.641,1.665,1.712,2.245,2.257
				c0.331,0.313,0.989,0.958,1.37,1.211c0.397,0.265,1.293,0.615,1.719,0.83c0.155,0.077,0.493,0.195,0.61,0.322
				c0.36,0.375,0.654,1.42,0.881,1.89c0.226,0.475,0.81,1.35,1.117,1.777c0.348,0.49,1.137,1.396,1.507,1.865
				c0.37,0.465,1.114,1.393,1.459,1.876c0.304,0.431,0.88,1.315,1.142,1.773C61.017,81.843,61.434,82.7,61.434,82.7z"/>
			<path id="XMLID_121_" style="fill:#E1A698;" d="M61.211,83.181l-0.147-0.301c-0.006-0.008-0.413-0.849-0.558-1.109
				c-0.259-0.452-0.823-1.322-1.12-1.741c-0.284-0.397-0.862-1.124-1.245-1.604l-0.201-0.253c-0.132-0.168-0.319-0.39-0.521-0.632
				c-0.359-0.433-0.769-0.924-1.001-1.247c-0.317-0.444-0.913-1.339-1.151-1.841c-0.077-0.163-0.161-0.379-0.25-0.609
				c-0.155-0.413-0.37-0.978-0.556-1.175c-0.044-0.037-0.227-0.115-0.315-0.152c-0.07-0.031-0.135-0.062-0.186-0.084
				c-0.143-0.073-0.342-0.161-0.561-0.259c-0.428-0.191-0.915-0.408-1.2-0.599c-0.352-0.23-0.871-0.725-1.247-1.085l-0.504-0.473
				c-0.65-0.606-1.548-1.44-1.965-2.008c-0.246-0.334-0.439-0.851-0.645-1.402c-0.25-0.671-0.561-1.506-0.908-1.717
				c-0.187,0.006-0.504,0.112-0.614,0.149c-0.046,0.017-0.08,0.025-0.097,0.028c-0.017,0.008-0.129,0.053-0.288,0.115
				c-0.664,0.264-1.409,0.555-1.789,0.655c-0.577,0.155-1.78,0.419-2.41,0.388c-0.316-0.017-0.733-0.152-1.139-0.281
				c-0.19-0.062-0.365-0.119-0.499-0.152c-0.272-0.062-0.668-0.126-1.089-0.192c-0.762-0.121-1.631-0.255-2.153-0.469
				c-0.573-0.234-1.535-0.905-2.008-1.298c-0.346-0.286-0.997-0.929-1.273-1.344c-0.222-0.326-0.502-1.002-0.606-1.343
				c-0.083-0.264-0.089-0.619-0.096-0.995c-0.008-0.275-0.021-0.877-0.119-1.082c-0.061,0.015-0.138,0.043-0.188,0.059
				c-0.094,0.034-0.185,0.062-0.248,0.074c-0.428,0.084-1.018,0.219-1.641,0.364c-1.093,0.253-2.33,0.54-3.109,0.635
				c-0.648,0.081-1.889,0.163-2.451,0.101c-1.107-0.118-3.212-0.731-4.239-1.107c-0.753-0.275-2.13-0.98-2.825-1.351
				c-0.81-0.433-2.379-1.321-3.133-1.858c-0.437-0.312-1.276-0.992-1.647-1.396c-0.644-0.697-1.709-2.265-2.23-3.106
				c-0.155-0.253-0.439-0.758-0.548-1.045c-0.143-0.377-0.448-1.327-0.471-1.872c-0.018-0.44,0.143-1.233,0.26-1.585
				c0.081-0.236,0.258-0.485,0.446-0.748c0.137-0.194,0.381-0.537,0.426-0.706c-0.036-0.034-0.086-0.075-0.121-0.105
				c-0.116-0.1-0.239-0.204-0.31-0.34c-0.126-0.23-0.197-0.592-0.259-0.912c-0.022-0.112-0.046-0.218-0.063-0.298
				c-0.04-0.157-0.103-0.362-0.173-0.587c-0.164-0.568-0.356-1.211-0.391-1.641c-0.028-0.378,0.054-1.08,0.125-1.419
				c0.083-0.379,0.341-1.082,0.497-1.442c0.17-0.393,0.557-1.102,0.855-1.628c0.075-0.131,0.16-0.305,0.253-0.496
				c0.316-0.637,0.673-1.358,1.098-1.689c0.222-0.177,0.546-0.219,0.884-0.264c0.126-0.015,0.313-0.041,0.435-0.074
				c-0.015-0.035-0.03-0.072-0.043-0.098c-0.065-0.149-0.129-0.304-0.136-0.459c-0.014-0.456,0.166-1.27,0.304-1.652
				c0.304-0.857,1.215-2.368,1.632-2.985c0.392-0.577,0.944-1.33,1.37-1.643c0.214-0.158,0.546-0.268,0.862-0.375
				c0.2-0.068,0.43-0.146,0.535-0.208c0.049-0.027,0.159-0.117,0.19-0.15c0.035-0.042,0.11-0.175,0.161-0.264
				c0.074-0.133,0.145-0.257,0.219-0.352c0.32-0.395,0.969-0.988,1.437-1.423l0.253-0.233c0.436-0.403,1.293-1.18,1.752-1.547
				c0.344-0.278,1.059-0.784,1.432-1.04l0.153-0.107c0.282-0.197,0.671-0.468,0.929-0.586c0.702-0.315,2.125-0.683,2.839-0.809
				c0.224-0.04,0.508-0.044,0.779-0.044l0.508,0.001c0.241,0,0.801,0,1.045-0.101c0.081-0.037,0.294-0.253,0.386-0.344
				c0.053-0.053,0.098-0.1,0.138-0.137c0.106-0.102,0.241-0.254,0.387-0.417c0.286-0.317,0.579-0.648,0.837-0.823
				c0.577-0.392,1.778-0.852,2.353-0.998c0.351-0.089,0.94-0.124,1.413-0.15c0.119-0.007,0.222-0.014,0.312-0.019
				c0.138-0.011,0.315-0.011,0.513-0.011h0.209c0.263,0,0.752,0,0.978-0.061c0.166-0.044,0.459-0.215,0.721-0.366
				c0.253-0.148,0.49-0.285,0.691-0.362c0.244-0.091,0.636-0.181,0.979-0.26c0.134-0.031,0.259-0.061,0.353-0.084
				c0.17-0.043,0.391-0.101,0.627-0.164c0.574-0.153,1.224-0.327,1.627-0.411c0.356-0.075,0.942-0.164,1.455-0.244
				c0.227-0.035,0.437-0.068,0.592-0.093c0.162-0.028,0.373-0.066,0.607-0.106c0.525-0.095,1.122-0.199,1.495-0.244
				c0.444-0.052,1.322-0.11,1.75-0.123c0.25-0.009,0.619-0.014,0.993-0.014c0.51,0,0.895,0.011,1.152,0.035
				c0.221,0.021,0.492,0.09,0.783,0.163c0.368,0.093,0.784,0.205,1.014,0.176c0.061-0.011,0.235-0.105,0.338-0.162
				c0.138-0.075,0.271-0.146,0.394-0.186c0.653-0.211,1.931-0.471,2.582-0.524c0.437-0.036,1.312,0.013,1.709,0.062
				c0.628,0.074,1.981,0.282,2.643,0.539c0.397,0.155,0.894,0.469,1.418,0.8c0.448,0.281,0.909,0.573,1.219,0.699
				c0.151,0.061,0.46,0.134,0.708,0.192c0.184,0.042,0.351,0.081,0.472,0.118c0.602,0.177,1.743,0.571,2.313,0.812
				c0.4,0.168,1.2,0.56,1.594,0.793c0.457,0.269,1.103,0.737,1.727,1.189c0.535,0.387,1.086,0.785,1.462,1.017
				c0.241,0.146,0.64,0.359,1.028,0.564c0.284,0.15,0.557,0.293,0.744,0.402c0.129,0.073,0.292,0.161,0.469,0.257
				c0.587,0.318,1.322,0.714,1.699,1.06c0.334,0.304,0.649,0.817,0.982,1.36c0.33,0.54,0.702,1.149,1.01,1.371
				c0.11,0.077,0.432,0.156,0.666,0.212c0.259,0.062,0.503,0.121,0.689,0.211c0.388,0.188,1.142,0.658,1.482,0.995
				c0.322,0.319,0.739,1.021,0.873,1.265c0.214,0.393,0.558,1.198,0.693,1.625c0.076,0.246,0.111,0.573,0.145,0.918
				c0.041,0.423,0.101,1.001,0.25,1.183c0.021,0.008,0.175,0.055,0.266,0.086c0.195,0.06,0.397,0.123,0.544,0.246
				c0.335,0.284,0.685,0.902,0.984,1.46l0.022,0.039c0.157,0.292,0.426,0.913,0.542,1.253c0.12,0.347,0.298,1.023,0.351,1.371
				c0.036,0.245,0.023,0.568,0.012,0.906c-0.017,0.395-0.039,0.935,0.058,1.145c0.014,0.014,0.121,0.096,0.187,0.146
				c0.146,0.112,0.298,0.228,0.386,0.379c0.142,0.239,0.213,0.615,0.276,0.947c0.022,0.117,0.043,0.222,0.061,0.304
				c0.036,0.136,0.084,0.315,0.134,0.509c0.13,0.474,0.275,1.011,0.341,1.348l0.044,0.208c0.117,0.539,0.208,1.013,0.169,1.349
				c-0.05,0.419-0.299,0.909-0.562,1.431c-0.224,0.44-0.481,0.941-0.497,1.228c-0.003,0.067,0.075,0.275,0.121,0.399
				c0.092,0.25,0.187,0.511,0.17,0.749c-0.041,0.54-0.451,1.443-0.766,1.828c-0.2,0.248-0.553,0.419-0.928,0.596
				c-0.202,0.097-0.55,0.264-0.689,0.388c0.014,0.02,0.028,0.037,0.039,0.05c0.034,0.039,0.061,0.077,0.08,0.105
				c0.121,0.174,0.346,0.427,0.562,0.671c0.31,0.347,0.631,0.706,0.802,0.997c0.339,0.577,0.809,1.768,0.947,2.404
				c0.177,0.805,0.301,2.513,0.185,3.426c-0.115,0.933-0.628,2.71-1.095,3.518c-0.512,0.881-1.883,2.176-2.697,2.948l-0.134,0.123
				c-0.768,0.727-2.486,2.261-3.497,2.886c-1.028,0.638-3.217,1.517-4.355,1.926c-0.9,0.322-2.685,0.805-3.563,0.991
				c-0.57,0.123-1.553,0.252-2.343,0.357c-0.241,0.034-0.464,0.062-0.643,0.087c-0.138,0.02-0.315,0.055-0.508,0.093
				c-0.538,0.11-1.175,0.23-1.575,0.173c-0.421-0.061-1.304-0.538-1.525-0.659l-0.528-0.222l0.58,1.52l1.06,1.963l1.423,2.292
				l3.336,4.779L61.211,83.181z M46.929,64.067c0.129,0,0.239,0.025,0.333,0.07c0.653,0.324,1.004,1.271,1.344,2.184
				c0.177,0.472,0.359,0.96,0.537,1.202c0.37,0.504,1.271,1.341,1.865,1.894l0.508,0.479c0.337,0.32,0.844,0.805,1.135,0.997
				c0.23,0.153,0.703,0.364,1.082,0.531c0.23,0.103,0.444,0.197,0.596,0.274c0.039,0.02,0.086,0.039,0.139,0.065
				c0.252,0.106,0.449,0.199,0.583,0.34c0.303,0.317,0.533,0.917,0.73,1.447c0.084,0.21,0.156,0.407,0.222,0.551
				c0.206,0.427,0.757,1.262,1.082,1.715c0.213,0.299,0.614,0.777,0.962,1.198c0.206,0.248,0.397,0.478,0.533,0.649l0.2,0.25
				c0.415,0.517,0.975,1.225,1.272,1.642c0.308,0.434,0.894,1.336,1.164,1.805c0.101,0.18,0.298,0.578,0.437,0.857l6.655-1.7
				l-2.67-3.825l-1.449-2.333l-1.109-2.054l-0.659-1.755l-0.218-1.423l1.959,0.833c0.461,0.255,1.075,0.548,1.262,0.576
				c0.292,0.039,0.859-0.079,1.299-0.166c0.212-0.042,0.405-0.081,0.556-0.101c0.181-0.025,0.402-0.055,0.648-0.088
				c0.735-0.097,1.743-0.229,2.282-0.344c0.848-0.179,2.611-0.66,3.455-0.961c1.191-0.426,3.279-1.281,4.204-1.852
				c0.884-0.548,2.497-1.964,3.362-2.784l0.132-0.125c0.734-0.693,2.101-1.985,2.553-2.761c0.401-0.695,0.89-2.374,0.993-3.209
				c0.09-0.731,0.001-2.351-0.172-3.15c-0.121-0.55-0.562-1.661-0.854-2.163c-0.132-0.221-0.436-0.563-0.704-0.867
				c-0.248-0.275-0.477-0.535-0.626-0.747c-0.014-0.019-0.027-0.038-0.048-0.06c-0.128-0.157-0.317-0.398-0.254-0.682
				c0.11-0.491,0.658-0.754,1.191-1.01c0.237-0.112,0.56-0.267,0.645-0.372c0.236-0.292,0.558-1.051,0.586-1.373
				c0-0.069-0.08-0.277-0.124-0.404c-0.094-0.258-0.186-0.502-0.172-0.736c0.031-0.454,0.299-0.985,0.586-1.547
				c0.21-0.413,0.448-0.88,0.48-1.154c0.025-0.23-0.088-0.762-0.156-1.082l-0.045-0.219c-0.065-0.311-0.21-0.857-0.329-1.294
				c-0.052-0.2-0.103-0.381-0.138-0.522c-0.023-0.092-0.048-0.216-0.072-0.354c-0.04-0.21-0.107-0.568-0.175-0.682
				c-0.017-0.021-0.116-0.095-0.179-0.143c-0.17-0.131-0.346-0.267-0.433-0.457c-0.179-0.388-0.153-0.963-0.134-1.519
				c0.012-0.287,0.022-0.582-0.003-0.753c-0.045-0.294-0.208-0.922-0.315-1.227c-0.101-0.296-0.352-0.875-0.489-1.128l-0.022-0.041
				c-0.164-0.305-0.547-1.016-0.792-1.223c-0.028-0.019-0.164-0.061-0.254-0.088c-0.249-0.077-0.506-0.156-0.667-0.355
				c-0.298-0.372-0.36-1.004-0.423-1.614c-0.031-0.29-0.061-0.591-0.112-0.756c-0.119-0.373-0.441-1.132-0.628-1.476
				c-0.181-0.324-0.534-0.877-0.731-1.077c-0.245-0.241-0.898-0.664-1.264-0.841c-0.103-0.051-0.325-0.105-0.52-0.153
				c-0.352-0.084-0.717-0.172-0.953-0.343c-0.445-0.32-0.845-0.975-1.232-1.607c-0.29-0.471-0.587-0.959-0.835-1.185
				c-0.306-0.277-1.016-0.662-1.539-0.942c-0.185-0.1-0.353-0.192-0.485-0.268c-0.182-0.104-0.444-0.243-0.721-0.388
				c-0.397-0.211-0.811-0.43-1.076-0.591c-0.4-0.247-0.937-0.638-1.509-1.05c-0.608-0.441-1.242-0.898-1.664-1.149
				c-0.357-0.211-1.124-0.585-1.496-0.744c-0.537-0.226-1.654-0.612-2.223-0.78c-0.11-0.032-0.266-0.068-0.428-0.106
				c-0.307-0.071-0.62-0.144-0.833-0.232c-0.374-0.153-0.848-0.45-1.347-0.765c-0.471-0.296-0.955-0.603-1.277-0.728
				c-0.541-0.212-1.757-0.409-2.441-0.49c-0.357-0.043-1.151-0.092-1.547-0.059c-0.583,0.046-1.814,0.297-2.398,0.486
				c-0.052,0.015-0.165,0.078-0.255,0.128c-0.208,0.113-0.42,0.228-0.627,0.255c-0.347,0.043-0.849-0.077-1.317-0.196
				c-0.246-0.061-0.503-0.126-0.658-0.141c-0.227-0.021-0.601-0.032-1.076-0.032c-0.364,0-0.726,0.007-0.967,0.014
				c-0.415,0.012-1.256,0.067-1.682,0.119c-0.346,0.04-0.957,0.149-1.446,0.237c-0.237,0.041-0.451,0.08-0.614,0.107
				c-0.161,0.026-0.374,0.058-0.602,0.095c-0.481,0.074-1.077,0.165-1.411,0.235c-0.383,0.081-1.05,0.258-1.583,0.401
				c-0.242,0.064-0.464,0.125-0.637,0.166c-0.099,0.028-0.23,0.056-0.377,0.088c-0.303,0.07-0.68,0.156-0.869,0.23
				c-0.138,0.05-0.359,0.177-0.568,0.302c-0.321,0.187-0.65,0.378-0.926,0.45c-0.302,0.082-0.734,0.088-1.187,0.088h-0.209
				c-0.174,0-0.334,0-0.457,0.01c-0.089,0.005-0.2,0.013-0.323,0.019c-0.388,0.023-0.982,0.056-1.259,0.127
				c-0.569,0.145-1.647,0.579-2.089,0.88c-0.175,0.12-0.46,0.437-0.689,0.692c-0.159,0.179-0.311,0.348-0.44,0.468
				c-0.032,0.032-0.07,0.073-0.116,0.117c-0.244,0.245-0.443,0.439-0.655,0.527c-0.325,0.135-0.778,0.162-1.357,0.162l-0.508-0.001
				c-0.225,0-0.476,0.003-0.64,0.032c-0.725,0.126-2.065,0.49-2.639,0.749c-0.19,0.086-0.557,0.342-0.796,0.51l-0.161,0.112
				c-0.377,0.258-1.065,0.749-1.383,1.004c-0.418,0.335-1.247,1.082-1.703,1.506l-0.257,0.237c-0.428,0.392-1.074,0.986-1.353,1.333
				c-0.035,0.042-0.098,0.152-0.15,0.239c-0.087,0.153-0.166,0.297-0.259,0.405c-0.097,0.109-0.277,0.25-0.383,0.313
				c-0.181,0.106-0.432,0.191-0.695,0.279c-0.234,0.079-0.525,0.177-0.636,0.258c-0.25,0.185-0.69,0.724-1.178,1.444
				c-0.466,0.689-1.284,2.084-1.539,2.801c-0.123,0.339-0.264,1.042-0.257,1.349c0.004,0.011,0.044,0.101,0.068,0.16
				c0.104,0.241,0.235,0.542,0.077,0.822c-0.208,0.37-0.689,0.434-1.113,0.49c-0.157,0.02-0.423,0.055-0.492,0.099
				c-0.275,0.213-0.626,0.93-0.86,1.402c-0.102,0.208-0.196,0.395-0.276,0.537c-0.406,0.719-0.698,1.27-0.818,1.551
				c-0.142,0.327-0.379,0.975-0.449,1.288c-0.067,0.312-0.129,0.918-0.108,1.18c0.027,0.346,0.214,0.971,0.362,1.474
				c0.074,0.236,0.138,0.453,0.179,0.618c0.023,0.09,0.046,0.21,0.072,0.341c0.044,0.223,0.11,0.561,0.178,0.684
				c0.006,0.006,0.075,0.062,0.119,0.101c0.168,0.141,0.374,0.317,0.408,0.582c0.054,0.444-0.267,0.893-0.574,1.329
				c-0.138,0.194-0.297,0.415-0.338,0.537c-0.107,0.312-0.234,0.995-0.221,1.289c0.019,0.375,0.259,1.19,0.421,1.609
				c0.08,0.215,0.334,0.676,0.48,0.911c0.501,0.813,1.526,2.321,2.134,2.979c0.33,0.358,1.122,1,1.521,1.284
				c0.688,0.488,2.193,1.349,3.043,1.801c0.633,0.34,2.014,1.048,2.722,1.307c1.011,0.371,3.039,0.955,4.045,1.062
				c0.534,0.059,1.642-0.022,2.259-0.098c0.737-0.093,1.954-0.375,3.029-0.621c0.627-0.146,1.223-0.284,1.663-0.371
				c0.035-0.007,0.088-0.025,0.141-0.044c0.284-0.099,0.649-0.181,0.88-0.018c0.484,0.335,0.5,1.079,0.515,1.797
				c0.006,0.302,0.013,0.618,0.059,0.775c0.098,0.312,0.347,0.893,0.504,1.124c0.203,0.304,0.777,0.888,1.114,1.169
				c0.423,0.351,1.331,0.98,1.797,1.171c0.433,0.177,1.251,0.304,1.972,0.419c0.432,0.067,0.844,0.13,1.145,0.202
				c0.151,0.034,0.352,0.1,0.562,0.169c0.323,0.103,0.722,0.232,0.929,0.241l0.081,0.003c0.528,0,1.534-0.217,2.077-0.361
				c0.365-0.097,1.235-0.44,1.701-0.626c0.212-0.084,0.356-0.14,0.383-0.146l0.043-0.014C46.34,64.165,46.666,64.067,46.929,64.067z
				"/>
		</g>
		<g id="XMLID_116_">
			<path id="XMLID_117_" style="fill:#E1A698;" d="M49.092,98.186C22.024,98.186,0,76.163,0,49.092C0,22.023,22.024,0,49.092,0
				c27.07,0,49.094,22.023,49.094,49.092C98.186,76.163,76.163,98.186,49.092,98.186z M49.092,3.574
				c-25.099,0-45.519,20.42-45.519,45.518c0,25.1,20.42,45.52,45.519,45.52c25.099,0,45.519-20.42,45.519-45.52
				C94.612,23.993,74.192,3.574,49.092,3.574z"/>
		</g>
	</g>
</g>
<g id="Layer_1">
</g>
</svg>
