<?xml version="1.0" encoding="iso-8859-1"?>
<!-- Generator: Adobe Illustrator 19.0.0, SVG Export Plug-In . SVG Version: 6.00 Build 0)  -->
<svg version="1.1" xmlns="http://www.w3.org/2000/svg" xmlns:xlink="http://www.w3.org/1999/xlink" x="0px" y="0px"
	 viewBox="0 0 38.403 91.093" style="enable-background:new 0 0 38.403 91.093;" xml:space="preserve">
<g id="Layer_12">
	<path id="XMLID_138_" style="fill:#6D6E70;" d="M37.533,46.647c-0.363-0.727-0.243-0.758-0.697-1.333
		c-0.516-0.576-0.424-0.455-1.06-1.091c-0.061-0.061-0.121-0.03-0.272-0.303c0,0.03-0.243-0.576-0.212-0.576
		c-0.363-0.909-0.597-1.675-0.779-2.615c-0.182-0.636-0.303-1.545-0.303-2.211c-0.102-1.2-0.373-2.082-0.524-2.748
		c-0.273-1.273-1.212-3.484-1.273-3.666c-0.667-2-0.818-4.211-1.03-5.908c-0.031-0.334,0.079-0.999,0.049-1.302
		c0-0.303-0.019-1.212,0.073-1.818c0.06-0.515,0.06-1.878,0.06-1.878c0.091-1.06-0.636-3.363-1.303-4.272
		c-0.303-0.363-0.383-0.622-0.727-0.879c-0.88-0.657-1.209-0.816-1.997-0.908c-0.848-0.121-1.639-0.244-2.821-0.638l-0.151-0.03
		c-0.788-0.242-1.546-0.485-1.818-1.242c-0.272-0.727-0.515-0.909-0.395-2.454v-0.243c0.092-0.182,0.152-0.364,0.243-0.576
		l0.667-1.181c0.454-0.333,0.879-2.363,0.666-2.697c-0.091-0.121-0.182-0.212-0.242-0.273l-0.091-0.06
		c0.121-0.303,0.151-1,0.182-1.273C23.778,2,21.849,0,19.465,0h-0.263h-0.263c-2.384,0-4.313,2-4.313,4.472
		c0.031,0.273,0.061,0.97,0.182,1.273l-0.091,0.06c-0.06,0.061-0.151,0.151-0.242,0.273c-0.213,0.333,0.212,2.363,0.666,2.697
		l0.667,1.181c0.091,0.212,0.151,0.394,0.243,0.576v0.243c0.12,1.545-0.122,1.727-0.394,2.454c-0.273,0.757-1.03,1-1.818,1.242
		l-0.151,0.03c-1.182,0.394-1.973,0.517-2.821,0.638c-0.787,0.091-1.116,0.251-1.996,0.908c-0.344,0.256-0.424,0.515-0.727,0.879
		c-0.667,0.909-1.394,3.212-1.303,4.272c0,0,0,1.363,0.06,1.878c0.091,0.606,0.073,1.515,0.073,1.818
		c-0.03,0.303,0.079,0.969,0.049,1.302c-0.212,1.697-0.363,3.908-1.029,5.908c-0.061,0.182-1,2.393-1.273,3.666
		c-0.151,0.667-0.422,1.548-0.524,2.748c0,0.666-0.121,1.576-0.303,2.211c-0.182,0.94-0.415,1.706-0.779,2.615
		c0.03,0-0.213,0.606-0.213,0.576c-0.151,0.273-0.211,0.242-0.272,0.303c-0.636,0.636-0.545,0.515-1.06,1.091
		c-0.454,0.576-0.333,0.606-0.697,1.333c-0.394,0.787-1.06,2.212-0.818,2.726c0.121,0.242,0.454,0.182,0.515,0.121
		c0.485-0.667,0.672-1.168,1.308-1.744c0.066-0.076,0.329-0.286,0.146,0.018l-0.364,1.06c-0.151,0.514-0.515,1.454-0.757,2.272
		c-0.333,0.999-0.394,1.272,0.03,1.363c0.424,0.061,0.728-0.848,0.909-1.242c0.364-0.788,0.545-1.515,0.879-2.03
		c-0.03,0.092-0.091,0.577-0.152,0.546c-0.151,1.122-0.303,2.151-0.303,3.242c0,0.758,0.545,0.484,0.636,0.303
		c0.061-0.181,0.243-1.09,0.364-1.727c0.151-0.788,0.242-1.728,0.515-2.121c-0.06,0.122,0,1.394,0.121,2.454
		c0.091,0.879,0.151,1.454,0.545,1.394c0.454-0.061,0.394-1.303,0.363-2.515c0-0.545,0.151-1.121,0.151-1.484
		c0,0.181,0.121,0.787,0.212,1.454c0.121,0.819,0.303,1.606,0.606,1.606c0.545,0,0.181-1.515,0.212-2.242
		c0-0.121,0.06-0.636,0.06-1.06c0-0.334,0.091-0.697,0.091-0.818c0.212-1.424,0.212-1.728-0.06-2.637
		c-0.091-0.394,0.484-2.09,1.03-3.09c0.091-0.182,0.575-0.909,0.697-1.182c0.273-0.515,0.576-1.091,0.818-1.636
		c0.273-0.576,0.818-1.727,1.09-2.666c0.152-0.455,0.273-0.788,0.394-1.515c0.181-1.061,0.198-1.744,0.319-2.925
		c0.031-0.212,0.196-0.802,0.287-1.013c0.171-0.43,0.436-2.331,0.542-2.873c-0.004-0.038-0.008-0.079-0.012-0.114l0.029,0.031
		c-0.005,0.022-0.011,0.051-0.017,0.083c0.154,1.494,0.428,4.452,0.398,5.841c-0.03,0.425,0.013,0.831-0.018,1.255
		c-0.007,0.278,0.071,1.047,0.089,2.32l0.02,0.759c-0.485,2.726-1.454,3.333-1.515,5.544c0,0.364-0.424,2.03-0.424,2.424
		c-0.121,4.273,0.151,7.453,0.909,11.392c0.303,1.576,0.636,2.06,1,4.151l0.151,2.545c-0.182,1.969,0.606,2.484,0.212,3.605
		c-0.727,1.97-0.582,4.968-0.279,6.603c0.212,1.152,0.915,3.698,1.733,6.001l0.061,0.212c0-0.061,0.879,2.12,0.484,3.999
		c0,0.091,0.031,0.363,0.031,0.425c0.06,1.06,0.091,0.575-0.122,1.151c-0.333,0.848-0.394,1.333-0.757,2.03
		c0.06-0.122-0.182,0.394-0.243,0.485c-0.03,0.06,0.031,0.212,0.031,0.272c0.091,0.394,0.302,0.849,1.03,0.636
		c-0.061,0,0.212,0.697,1.091,0.183l0.182,0.181c0.364,0.302,0.636,0.273,0.97-0.03c-0.061,0.03,0.424,0.606,0.969,0.061
		c-0.091,0.091,0.333,0.302,0.424,0.333c0.242,0.061,0.515,0.03,0.757-0.091c0.333-0.182,0.424-0.697,0.424-0.697v-0.06
		c0-0.575-0.424-0.818-0.363-1.242c0.03-0.242,0-0.515-0.091-0.758c-0.181-0.454-0.515-0.848-0.515-1.424
		c0-0.757,0.06-1.575-0.333-2.332v-0.454c-0.031-0.697-0.515-1.484-0.515-2.06l-0.03-0.212c0-0.848-0.06-1.818-0.09-2.636
		c-0.061-1.576,0.181-3.09,0.272-3.969c0.213-1.697,0.364-2.181-0.242-4.06c-0.303-0.848-0.092-2.333,0-3.151
		c0.09-0.909,0.242-1.424,0.454-2.332c0.454-2.152,0.212-3.97,0.636-6.302c0.273-1.394,0.394-2.848,0.667-4.272
		c0.212-1.091,0.363-2.181,0.485-3.333c0.121,1.152,0.273,2.242,0.485,3.333c0.273,1.424,0.394,2.878,0.667,4.272
		c0.424,2.332,0.182,4.15,0.636,6.302c0.213,0.908,0.364,1.423,0.455,2.332c0.091,0.818,0.303,2.303,0,3.151
		c-0.606,1.879-0.455,2.363-0.242,4.06c0.09,0.878,0.333,2.393,0.272,3.969c-0.03,0.817-0.09,1.787-0.09,2.636l-0.03,0.212
		c0,0.576-0.485,1.363-0.515,2.06v0.454c-0.394,0.757-0.333,1.576-0.333,2.332c0,0.576-0.333,0.97-0.514,1.424
		c-0.092,0.243-0.122,0.515-0.092,0.758c0.061,0.424-0.363,0.667-0.363,1.242v0.06c0,0,0.091,0.515,0.424,0.697
		c0.242,0.121,0.515,0.151,0.757,0.091c0.09-0.031,0.515-0.243,0.424-0.333c0.545,0.545,1.03-0.03,0.969-0.061
		c0.334,0.303,0.606,0.333,0.97,0.03l0.182-0.181c0.878,0.515,1.151-0.183,1.09-0.183c0.727,0.213,0.939-0.242,1.03-0.636
		c0-0.06,0.061-0.212,0.031-0.272c-0.061-0.091-0.302-0.606-0.243-0.485c-0.363-0.697-0.424-1.182-0.757-2.03
		c-0.212-0.576-0.182-0.091-0.121-1.151c0-0.061,0.031-0.334,0.031-0.425c-0.394-1.879,0.485-4.06,0.485-3.999l0.06-0.212
		c0.819-2.303,1.521-4.849,1.733-6.001c0.303-1.635,0.448-4.634-0.279-6.603c-0.394-1.121,0.394-1.636,0.212-3.605l0.151-2.545
		c0.364-2.091,0.697-2.575,1-4.151c0.758-3.939,1.03-7.12,0.909-11.392c0-0.393-0.424-2.06-0.424-2.424
		c-0.06-2.212-1.03-2.818-1.515-5.544l0.02-0.759c0.018-1.273,0.096-2.042,0.089-2.32c-0.03-0.424,0.013-0.83-0.018-1.255
		c-0.029-1.389,0.244-4.347,0.398-5.841c-0.006-0.032-0.012-0.061-0.017-0.083l0.029-0.031c-0.004,0.036-0.008,0.077-0.012,0.114
		c0.106,0.542,0.371,2.443,0.542,2.873c0.091,0.212,0.256,0.801,0.287,1.013c0.121,1.182,0.138,1.865,0.319,2.925
		c0.121,0.727,0.243,1.06,0.395,1.515c0.272,0.94,0.817,2.09,1.09,2.666c0.243,0.545,0.545,1.121,0.819,1.636
		c0.121,0.272,0.606,1,0.697,1.182c0.546,1,1.121,2.696,1.03,3.09c-0.273,0.909-0.273,1.212-0.06,2.637
		c0,0.121,0.091,0.484,0.091,0.818c0,0.424,0.06,0.939,0.06,1.06c0.031,0.727-0.333,2.242,0.212,2.242
		c0.303,0,0.485-0.788,0.606-1.606c0.091-0.666,0.212-1.272,0.212-1.454c0,0.363,0.152,0.939,0.152,1.484
		c-0.03,1.212-0.091,2.454,0.363,2.515c0.394,0.061,0.455-0.515,0.545-1.394c0.121-1.06,0.182-2.332,0.121-2.454
		c0.273,0.394,0.364,1.333,0.515,2.121c0.121,0.636,0.303,1.546,0.364,1.727c0.09,0.181,0.636,0.455,0.636-0.303
		c0-1.091-0.151-2.12-0.302-3.242c-0.061,0.031-0.121-0.454-0.152-0.546c0.333,0.516,0.515,1.243,0.879,2.03
		c0.181,0.394,0.485,1.302,0.909,1.242c0.424-0.09,0.364-0.363,0.03-1.363c-0.242-0.819-0.606-1.758-0.757-2.272l-0.364-1.06
		c-0.183-0.303,0.08-0.094,0.146-0.018c0.636,0.576,0.823,1.078,1.308,1.744c0.061,0.061,0.393,0.121,0.515-0.121
		C38.593,48.859,37.927,47.434,37.533,46.647z"/>
	<path id="XMLID_137_" style="fill:#C3BE7D;" d="M26.922,27.303c-0.003-0.072-0.006-0.139-0.008-0.197
		c-0.012-0.407-0.147-1.122-0.246-1.645c-0.024-0.125-0.045-0.239-0.062-0.334l-0.001-0.009c-0.085-0.477-0.245-1.366-0.369-1.812
		c-0.039-0.14-0.117-0.349-0.193-0.551c-0.059-0.155-0.113-0.302-0.146-0.405c-0.034-0.108-0.073-0.264-0.115-0.429
		c-0.063-0.255-0.129-0.519-0.195-0.683c-0.153-0.384-0.555-1.106-0.775-1.457c-0.288-0.461-0.933-1.342-1.296-1.791
		c-0.038-0.047-0.081-0.101-0.128-0.16c-0.277-0.349-0.696-0.876-0.995-1.084c-0.238-0.166-0.804-0.428-1.116-0.444
		c-0.196-0.01-0.622,0.032-0.79,0.171c-0.229,0.19-0.343,0.745-0.41,1.077l-0.015,0.073c-0.06,0.286-0.066,0.706-0.074,1.15
		c-0.007,0.443-0.014,0.901-0.08,1.185c-0.002,0.01-0.007,0.022-0.01,0.033l-0.125-0.164v-4.028l-0.033-0.022
		c-0.052-0.035-0.317-0.212-0.473-0.212c-0.157,0-0.422,0.177-0.473,0.212l-0.033,0.022v4.274l-0.083,0.109
		c-0.037-0.085-0.069-0.164-0.083-0.223c-0.066-0.285-0.073-0.743-0.08-1.185c-0.007-0.444-0.013-0.863-0.073-1.15l-0.015-0.073
		c-0.068-0.332-0.181-0.887-0.41-1.077c-0.168-0.139-0.593-0.181-0.79-0.171c-0.311,0.016-0.877,0.278-1.116,0.444
		c-0.299,0.209-0.718,0.736-0.995,1.084c-0.047,0.059-0.09,0.113-0.128,0.16c-0.363,0.449-1.009,1.329-1.297,1.791
		c-0.219,0.352-0.621,1.073-0.775,1.457c-0.066,0.164-0.132,0.428-0.195,0.683c-0.041,0.165-0.08,0.321-0.114,0.429
		c-0.033,0.103-0.088,0.25-0.146,0.405c-0.076,0.202-0.154,0.41-0.193,0.551c-0.124,0.446-0.283,1.335-0.369,1.812l-0.002,0.009
		c-0.017,0.095-0.039,0.209-0.062,0.334c-0.099,0.523-0.234,1.238-0.246,1.645c-0.002,0.058-0.004,0.124-0.007,0.197
		c-0.023,0.556-0.057,1.396,0.206,1.756c0.189,0.259,0.818,0.478,1.134,0.493c0.012,0.001,0.024,0.001,0.037,0.001
		c0.426,0,1.173-0.336,1.536-0.499c0.138-0.062,0.313-0.18,0.498-0.306c0.229-0.155,0.465-0.314,0.632-0.368
		c0.134-0.043,0.364-0.048,0.587-0.053c0.197-0.004,0.383-0.008,0.514-0.038c0.291-0.065,0.809-0.202,1.017-0.386
		c0.282-0.249,0.581-0.946,0.669-1.267c0.022-0.079,0.019-0.189,0.016-0.305c-0.003-0.108-0.006-0.219,0.014-0.279l0.433-2.064
		l0.002-0.016c0-0.125-0.006-0.289-0.012-0.463c-0.013-0.393-0.03-0.881,0.011-1.155c0.011-0.074,0.054-0.188,0.096-0.298
		c0.057-0.149,0.115-0.303,0.12-0.417c0.005-0.126-0.026-0.302-0.072-0.491l0.353-0.228l0.162,0.054
		c-0.069,0.251-0.124,0.501-0.117,0.665c0.004,0.114,0.063,0.268,0.12,0.417c0.042,0.11,0.085,0.224,0.096,0.298
		c0.041,0.274,0.024,0.763,0.011,1.155c-0.006,0.174-0.012,0.338-0.012,0.463l0.432,2.072l0.002,0.008
		c0.02,0.06,0.017,0.171,0.014,0.279c-0.003,0.116-0.006,0.226,0.016,0.305c0.088,0.321,0.386,1.018,0.669,1.267
		c0.208,0.184,0.727,0.321,1.018,0.386c0.13,0.029,0.317,0.033,0.513,0.038c0.223,0.005,0.453,0.01,0.587,0.053
		c0.167,0.054,0.403,0.213,0.631,0.368c0.185,0.125,0.36,0.243,0.502,0.307c0.359,0.162,1.106,0.498,1.531,0.498
		c0.013,0,0.025,0,0.037-0.001c0.316-0.015,0.944-0.233,1.134-0.492C26.98,28.699,26.945,27.858,26.922,27.303z"/>
	<path id="XMLID_136_" style="fill:#C6C7E4;" d="M26.103,31.484c-0.016-0.128-0.06-0.385-0.095-0.511
		c-0.042-0.152-0.157-0.446-0.219-0.596c-0.122-0.291-0.216-0.491-0.28-0.593c-0.073-0.117-0.246-0.326-0.337-0.425
		c-0.118-0.128-0.389-0.391-0.545-0.509c-0.101-0.077-0.325-0.219-0.451-0.279c-0.085-0.04-0.261-0.106-0.357-0.122
		c-0.082-0.014-0.209-0.022-0.35-0.022c-0.128,0-0.246,0.007-0.324,0.018c-0.084,0.012-0.236,0.066-0.313,0.097
		c-0.097,0.039-0.277,0.128-0.363,0.18c-0.062,0.037-0.149,0.103-0.233,0.167c-0.068,0.052-0.132,0.1-0.178,0.13
		c-0.165,0.107-0.28,0.175-0.344,0.201c-0.057,0.023-0.165,0.057-0.213,0.057c-0.038,0-0.154-0.037-0.23-0.064l-0.192-0.163
		l-0.122-0.173l-0.12-0.293l-0.087-0.314l-0.055-0.31l-0.055-0.443h-0.959l0.023,0.577l0.024,0.258l0.063,0.281l0.069,0.282
		l0.221,0.428l0.231,0.361l0.213,0.236l0.186,0.2l0.37,0.231l0.018,0.007c0.116,0.028,0.258,0.077,0.285,0.106
		c0.012,0.014,0.025,0.074,0.031,0.103c0.005,0.022,0.009,0.043,0.013,0.058c0.023,0.074,0.068,0.224,0.089,0.298
		c0.009,0.031,0.021,0.073,0.033,0.118c0.019,0.072,0.042,0.153,0.057,0.203c0.032,0.101,0.103,0.298,0.142,0.402
		c0.009,0.022,0.022,0.052,0.036,0.085c0.022,0.051,0.049,0.114,0.058,0.149c0.011,0.041,0.018,0.133,0.022,0.205
		c0.003,0.064,0.005,0.145,0,0.181c-0.008,0.068-0.057,0.259-0.097,0.412c-0.029,0.112-0.054,0.209-0.064,0.258
		c-0.019,0.099-0.024,0.2-0.029,0.297c-0.005,0.114-0.011,0.222-0.037,0.326c-0.006,0.007-0.022,0.021-0.03,0.027
		c-0.008,0.007-0.015,0.013-0.02,0.018c-0.051,0.048-0.154,0.139-0.206,0.182c-0.043,0.035-0.112,0.086-0.179,0.136
		c-0.074,0.055-0.151,0.113-0.2,0.153c-0.064,0.054-0.161,0.147-0.248,0.23c-0.05,0.048-0.098,0.094-0.133,0.126
		c-0.02,0.019-0.046,0.044-0.074,0.071c-0.066,0.065-0.156,0.153-0.211,0.186c-0.024,0.014-0.078,0.034-0.099,0.036
		c-0.023,0-0.078-0.013-0.089-0.018c-0.017-0.008-0.036-0.012-0.189-0.025c-0.025-0.002-0.048-0.004-0.063-0.006
		c-0.027-0.003-0.066-0.008-0.106-0.013c-0.057-0.008-0.117-0.015-0.157-0.018c-0.039-0.003-0.102-0.004-0.157-0.005
		c-0.033,0-0.064-0.001-0.087-0.002c-0.024-0.001-0.055-0.003-0.09-0.006c-0.069-0.005-0.151-0.01-0.2-0.008
		c-0.095,0.005-0.284,0.028-0.38,0.058c-0.039,0.012-0.1,0.039-0.159,0.065c-0.041,0.018-0.097,0.043-0.109,0.046
		c-0.011,0.001-0.028,0.005-0.047,0.009c-0.025,0.005-0.059,0.013-0.083,0.013c0,0,0,0-0.001,0
		c-0.025-0.006-0.085-0.052-0.114-0.075c-0.01-0.008-0.019-0.015-0.027-0.021c-0.018-0.013-0.045-0.038-0.071-0.062
		c-0.04-0.037-0.082-0.075-0.116-0.096c-0.05-0.031-0.135-0.065-0.21-0.095c-0.025-0.01-0.049-0.019-0.066-0.027
		c-0.022-0.009-0.049-0.021-0.079-0.035c-0.083-0.038-0.187-0.085-0.253-0.102c-0.081-0.021-0.237-0.043-0.317-0.036
		c-0.078,0.007-0.217,0.062-0.245,0.073c-0.082,0.033-0.234,0.109-0.307,0.157c-0.07,0.046-0.196,0.153-0.254,0.211
		c-0.073,0.073-0.201,0.227-0.259,0.311c-0.06,0.088-0.158,0.271-0.201,0.363c-0.038,0.08-0.095,0.236-0.13,0.329l-0.01,0.026
		c-0.019,0.05-0.075,0.203-0.098,0.279c-0.045,0.155-0.119,0.472-0.153,0.642c-0.019,0.097-0.051,0.297-0.063,0.401
		c-0.01,0.094-0.024,0.367-0.024,0.379l-0.003,0.065h1.187l0.006-0.056c0,0,0.014-0.144,0.02-0.191
		c0.013-0.111,0.042-0.319,0.059-0.425c0.013-0.082,0.041-0.254,0.06-0.335c0.015-0.062,0.054-0.193,0.08-0.256
		c0.084-0.206,0.153-0.339,0.202-0.395c0.022-0.025,0.087-0.07,0.121-0.083c0.015-0.006,0.05-0.014,0.072-0.014h0
		c0.014,0.003,0.052,0.029,0.068,0.04l0.02,0.013c0.023,0.015,0.061,0.043,0.094,0.068c0.026,0.02,0.052,0.039,0.069,0.051
		c0.009,0.006,0.021,0.015,0.034,0.024c0.044,0.033,0.099,0.073,0.141,0.089c0.086,0.034,0.254,0.05,0.323,0.053
		c0.048,0.002,0.139-0.006,0.186-0.015c0.042-0.008,0.1-0.028,0.157-0.047c0.034-0.012,0.065-0.023,0.089-0.029
		c0.007-0.002,0.016-0.005,0.026-0.008c0.018-0.006,0.056-0.018,0.069-0.018c0.019,0.001,0.071,0.018,0.091,0.029
		c0.053,0.031,0.134,0.115,0.2,0.182c0.035,0.036,0.067,0.069,0.092,0.092c0.013,0.012,0.028,0.026,0.046,0.042
		c0.057,0.053,0.129,0.12,0.177,0.155c0.108,0.078,0.335,0.204,0.462,0.27c0.158,0.082,0.478,0.228,0.645,0.295
		c0.124,0.05,0.365,0.137,0.489,0.168c0.12,0.03,0.364,0.066,0.495,0.077c0.079,0.007,0.191,0.009,0.27,0.009
		c0.119,0,0.248-0.003,0.337-0.008c0.15-0.009,0.439-0.036,0.584-0.067c0.149-0.032,0.435-0.13,0.59-0.189
		c0.153-0.057,0.443-0.176,0.582-0.251c0.173-0.093,0.518-0.315,0.687-0.45c0.137-0.11,0.37-0.348,0.543-0.528
		c0.117-0.123,0.348-0.378,0.458-0.517c0.092-0.116,0.266-0.356,0.342-0.485c0.085-0.145,0.224-0.448,0.292-0.605
		c0.084-0.193,0.19-0.452,0.227-0.594c0.049-0.19,0.09-0.582,0.105-0.742c0.016-0.164,0.033-0.475,0.031-0.629
		C26.154,32.055,26.128,31.678,26.103,31.484z"/>
	<path id="XMLID_135_" style="fill:#C85248;" d="M21.755,25.106c-0.002-0.024-0.01-0.06-0.017-0.095
		c-0.004-0.021-0.009-0.04-0.011-0.055c-0.002-0.011-0.003-0.026-0.005-0.042c-0.003-0.025-0.006-0.051-0.01-0.069
		c-0.003-0.013-0.009-0.032-0.014-0.049c-0.003-0.008-0.005-0.016-0.007-0.022l-0.003-0.009c-0.005-0.018-0.012-0.043-0.016-0.057
		c-0.002-0.007-0.003-0.018-0.005-0.028c-0.003-0.017-0.006-0.035-0.01-0.047c-0.004-0.014-0.012-0.032-0.02-0.05
		c-0.006-0.014-0.012-0.027-0.015-0.036c-0.004-0.011-0.009-0.031-0.012-0.045l-0.002-0.008c-0.002-0.007-0.003-0.016-0.006-0.025
		c-0.004-0.019-0.008-0.038-0.012-0.051c-0.005-0.015-0.014-0.035-0.022-0.055c-0.006-0.014-0.012-0.028-0.016-0.038
		c-0.021-0.057-0.054-0.163-0.079-0.24l-0.013-0.043c-0.006-0.018-0.016-0.041-0.027-0.065c-0.01-0.022-0.021-0.045-0.025-0.059
		c-0.001-0.005-0.003-0.013-0.004-0.02c-0.002-0.007-0.003-0.014-0.004-0.019c-0.003-0.011-0.01-0.038-0.015-0.052
		c-0.016-0.044-0.053-0.127-0.074-0.17c-0.02-0.041-0.065-0.124-0.092-0.164c-0.022-0.033-0.063-0.084-0.096-0.125
		c-0.014-0.017-0.026-0.033-0.036-0.045c-0.005-0.006-0.011-0.014-0.018-0.023c-0.015-0.019-0.034-0.042-0.043-0.056l-0.003-0.003
		c-0.001-0.002-0.003-0.004-0.003-0.004c-0.021-0.071-0.03-0.233-0.002-0.301c0.001-0.001,0.002-0.002,0.003-0.003
		c0.006-0.006,0.014-0.013,0.018-0.024c0.009-0.025,0.005-0.058,0.001-0.092c-0.003-0.023-0.007-0.055-0.002-0.066
		c0.009-0.021,0.048-0.05,0.082-0.075c0.035-0.025,0.067-0.049,0.085-0.075c0.013-0.019,0.024-0.051,0.034-0.085l0.003-0.009
		c0.012-0.038,0.032-0.109,0.038-0.146c0.005-0.035,0.007-0.103,0.003-0.136c-0.002-0.021-0.011-0.055-0.02-0.088
		c-0.006-0.023-0.02-0.068-0.029-0.091c-0.007-0.019-0.023-0.054-0.032-0.072c-0.019-0.036-0.04-0.071-0.057-0.09
		c-0.024-0.024-0.08-0.061-0.113-0.075c-0.01-0.004-0.021-0.005-0.032-0.006c-0.004-0.001-0.011-0.001-0.015-0.002
		c-0.003-0.005-0.008-0.014-0.01-0.019c-0.001-0.003-0.003-0.006-0.004-0.009c-0.005-0.009-0.011-0.025-0.017-0.041
		c-0.009-0.023-0.018-0.047-0.028-0.063c-0.016-0.027-0.05-0.066-0.076-0.098c-0.007-0.008-0.013-0.015-0.018-0.021l-0.012-0.015
		c-0.023-0.028-0.054-0.066-0.075-0.086c-0.022-0.021-0.062-0.05-0.097-0.076c-0.014-0.01-0.027-0.02-0.037-0.028
		c-0.007-0.005-0.015-0.012-0.024-0.019c-0.023-0.019-0.049-0.04-0.068-0.051c-0.023-0.013-0.07-0.029-0.095-0.036
		c-0.015-0.004-0.036-0.008-0.057-0.011c-0.014-0.002-0.026-0.004-0.035-0.007l-0.015-0.003c-0.022-0.005-0.058-0.012-0.074-0.019
		c-0.002-0.001-0.003-0.002-0.005-0.002c-0.005-0.017,0.001-0.054,0.005-0.081c0.007-0.046,0.013-0.089-0.003-0.121
		c-0.019-0.038-0.085-0.085-0.124-0.094c-0.009-0.002-0.02-0.004-0.033-0.004c-0.024,0-0.073,0.005-0.098,0.025
		c-0.007,0.005-0.012,0.012-0.016,0.019c-0.02-0.031-0.06-0.07-0.09-0.083c-0.017-0.007-0.039-0.008-0.051-0.008
		c-0.012,0-0.034,0.001-0.051,0.008c-0.028,0.012-0.063,0.05-0.076,0.073c-0.009,0.017-0.014,0.042-0.018,0.072
		c-0.001,0.006-0.002,0.011-0.002,0.015c-0.005,0.027-0.013,0.08-0.015,0.108c0,0.01,0.001,0.021,0.002,0.032
		c0.001,0.004,0.001,0.01,0.002,0.015c-0.001-0.002-0.001-0.003-0.002-0.005c-0.019-0.036-0.052-0.087-0.084-0.136
		c-0.029-0.045-0.059-0.091-0.076-0.122c-0.001-0.002-0.001-0.004-0.002-0.006c-0.004-0.012-0.009-0.028-0.024-0.036
		c-0.013-0.008-0.031-0.012-0.055-0.012c-0.031,0-0.067,0.007-0.09,0.013c-0.036,0.009-0.097,0.042-0.123,0.064
		c-0.035,0.028-0.117,0.099-0.129,0.157c-0.002,0.011,0.001,0.022,0.009,0.038c0.003,0.006,0.008,0.012,0.013,0.017
		c0.002,0.002,0.004,0.004,0.005,0.006c0.028,0.045,0.075,0.143,0.093,0.195c0.005,0.015,0.013,0.049,0.014,0.063
		c0.002,0.031-0.002,0.097-0.008,0.127c-0.004,0.019-0.015,0.052-0.026,0.081c-0.008,0.021-0.015,0.041-0.019,0.056
		c-0.004,0.015-0.009,0.036-0.014,0.058c-0.006,0.027-0.012,0.057-0.018,0.074c-0.001,0.002-0.002,0.006-0.003,0.009
		c0,0.001-0.001,0.002-0.001,0.004c-0.035,0.003-0.099-0.037-0.149-0.068c-0.035-0.022-0.069-0.043-0.096-0.053
		c-0.022-0.008-0.076-0.026-0.107-0.029c-0.03-0.003-0.088,0.004-0.112,0.007l-0.005,0.001c-0.019,0.002-0.035,0.005-0.047,0.016
		c-0.016,0.015-0.022,0.039-0.029,0.07c-0.001,0.006-0.002,0.01-0.003,0.014c-0.013,0.048-0.033,0.143-0.042,0.192
		c-0.004,0.023-0.01,0.057-0.015,0.092c-0.005,0.031-0.01,0.063-0.014,0.083c-0.005,0.027-0.014,0.066-0.023,0.106
		c-0.011,0.049-0.022,0.1-0.028,0.133c-0.006,0.033-0.012,0.085-0.019,0.134c-0.004,0.031-0.008,0.06-0.011,0.081
		c-0.003,0.024-0.009,0.056-0.015,0.091c-0.011,0.063-0.023,0.134-0.027,0.179c-0.002,0.026-0.003,0.062-0.004,0.101
		c-0.001,0.046-0.002,0.094-0.006,0.123c-0.003,0.024-0.012,0.072-0.019,0.095c-0.015,0.05-0.05,0.131-0.081,0.202
		c-0.02,0.047-0.04,0.092-0.052,0.125c-0.016,0.042-0.07,0.187-0.091,0.26c-0.008,0.029-0.02,0.089-0.025,0.114l-0.004,0.018
		c-0.008,0.041-0.02,0.098-0.023,0.131c-0.007,0.074-0.02,0.256-0.02,0.345c0,0.074,0.01,0.214,0.02,0.288
		c0.01,0.072,0.046,0.207,0.064,0.269c0.011,0.037,0.021,0.061,0.032,0.085c0.007,0.015,0.014,0.032,0.022,0.054
		c0.015,0.04,0.044,0.113,0.06,0.149c0.033,0.07,0.1,0.203,0.141,0.266c0.023,0.036,0.073,0.096,0.106,0.136l0.012,0.015
		c0.038,0.046,0.13,0.157,0.18,0.209c0.042,0.044,0.129,0.124,0.175,0.162c0.068,0.056,0.21,0.158,0.282,0.206
		c0.05,0.033,0.151,0.095,0.197,0.123l0.022,0.013c0.066,0.04,0.166,0.1,0.223,0.128c0.1,0.049,0.303,0.129,0.409,0.168
		c0.054,0.02,0.187,0.066,0.255,0.081c0.063,0.014,0.292,0.044,0.351,0.051c0.123,0.014,0.266,0.028,0.393,0.029h0.011
		c0.063,0,0.201-0.005,0.272-0.023c0.002,0,0.144-0.037,0.195-0.088c0.06-0.059,0.122-0.194,0.19-0.413
		c0.034-0.11,0.07-0.335,0.08-0.441c0.002-0.029,0.005-0.057,0.008-0.085c0.01-0.105,0.019-0.204,0.019-0.315
		C21.782,25.409,21.765,25.217,21.755,25.106z"/>
	<path id="XMLID_134_" style="fill:#E1A698;" d="M19.244,1.634c0,0-0.123-0.466-0.395-0.623c-0.635-0.366-1.381-0.194-2.007,0.086
		c-0.626,0.28-1.214,1.23-1.381,1.789c-0.307,1.028-0.471,2.402-0.061,3.15c0.336,0.614,0.942,1.327,1.682,1.321
		c-0.005,0.284,0.318,0.741,0.565,0.885c0.229,0.135,0.998,0.112,1.3,0.032v1.28h0.655v-1.27c0.326,0.072,1.038,0.086,1.257-0.042
		c0.246-0.145,0.569-0.601,0.565-0.885c0.74,0.006,1.346-0.707,1.682-1.321c0.409-0.748,0.246-2.121-0.062-3.15
		c-0.167-0.558-0.754-1.508-1.38-1.789c-0.626-0.28-1.372-0.452-2.007-0.086c-0.272,0.157-0.395,0.623-0.395,0.623"/>
	<path id="XMLID_47_" style="fill:#D2AF52;" d="M26.123,40.812c0.202-0.48,0-0.682-0.127-0.808
		c-0.126-0.126,0.253-0.126,0.026-0.505c-0.228-0.379-0.278-0.48-0.076-0.783c0.202-0.303,0-1.136-0.202-1.263
		c-0.202-0.126,0.303-0.151,0.151-0.985c-0.151-0.833-0.834-1.238-1.288-1.238c-0.455,0-0.884,0.404-1.086,0.253
		c-0.202-0.152-0.606,0.227-0.733,0.404c-0.126,0.177-0.48-0.151-0.833,0.253c-0.354,0.404-0.202,0.682-0.455,0.556
		c-0.253-0.126-0.656,0.631-0.833,0.581c-0.176-0.05-0.909,0-1.035,0.151c-0.126,0.152-0.202,0.177-0.606,0.152
		c-0.404-0.025-0.808,0.177-0.934,0.051c-0.121-0.121-0.613-0.054-0.831,0.22c0.094-0.191,0.194-0.619-0.483-0.801
		c-1.035-0.278-0.505,0.429-0.859-0.202c-0.225-0.402-0.481-0.63-0.761-0.645l-0.047,0.038c0,0,0.152-0.479-0.733-0.455
		c-0.884,0.025-1.212,0.48-1.338,0.732l-0.053,0.026c-0.707,0-0.907,0.556-0.882,1.162c0.025,0.606,0.051,0.808-0.177,1.212
		c-0.227,0.404,0.531,0.404,0.278,0.833c-0.252,0.429-0.076,0.732,0.025,0.909c0.101,0.177-0.429,0.328-0.152,1.086
		c0.278,0.758-0.202,0.733-0.076,1.086c0.126,0.354,0.303,0.455,0.05,0.606c-0.253,0.151-0.379,1.187-0.101,1.667
		c0.278,0.48-0.177,0.884,0.53,1.465c0.707,0.581,1.49,0.227,1.515,0.05l-0.009,0.182c0.085,0.495,0.319,0.832,0.514,1.081
		c0.278,0.353,0.758,0.757,0.859,0.48c0.101-0.278-0.101-0.682-0.354-0.859c-0.201-0.14-0.48-0.296-0.638-0.796l0.006-0.189
		c0,0,0.278,0.278,0.43,0.051c0.132-0.198,0.475-0.684,0.393-1.023c0.192,0.034,0.419-0.002,0.753-0.203
		c0.337-0.202,0.876-0.353,1.313-0.219c0.426,0.131,0.798-0.321,1.813,1.117c-1.049,0.473-1.764,1.326-1.697,2.196
		c0.067,0.875,0.286,0.976,0.286,1.431c0,0.454,0.522,0.454,0.455,1.01c-0.067,0.556,0.494,1.011,0.766,0.835
		c0.094-0.061,0.15-0.246,0.183-0.422c0.044,0.226,0.202,0.454,0.466,0.496c0.421,0.067,0.522-1.128,0.993-2.004
		c0.211-0.393,0.257-0.759,0.206-1.072l0.181-0.056c0,0,0.169,0.067,0.303,0.067c0.135,0-0.201,0.202,0.135,0.707
		c0.337,0.505,1.381,0.135,1.616-0.034l-0.08,0.088c0,0,0.476,0.619,1.259-0.265c0,0-0.151,0.202,0.177,0.303
		c0.328,0.101,0.96-1.061,1.238-2.172c0.277-1.111,0.126-1.288,0.404-1.641c0.278-0.354-0.404-0.429,0-1.01
		c0.404-0.581-0.404-0.329,0.025-1.111c0.43-0.783-0.505-0.934-0.05-1.364C26.401,41.797,25.921,41.292,26.123,40.812z
		 M22.318,38.741c0.151,0,0.674-0.135,0.724-0.32c0.05-0.185,0.522-0.269,0.64-0.556l0.05-0.236c0,0,0,0.741-0.135,1.162
		c-0.135,0.421-0.135,0.724,0.05,0.859c0.185,0.135,0.135,0.336,0.05,0.539c-0.084,0.202-0.017,0.774,0,1.078
		c0.013,0.228-0.031,0.57-0.011,0.869c-0.234-0.512-0.619-0.937-0.845-1.05c-0.035-0.018-0.076-0.036-0.121-0.054
		c0.387-0.596,0.722-1.36,0.677-1.546c-0.102-0.421-1.229-0.354-1.229-0.354s-0.144-0.057-0.306-0.12
		C22.05,38.871,22.237,38.741,22.318,38.741z M20.871,45.094c-0.79,0.014-0.782-0.008-1.281-0.137c0,0,0,0,0,0
		c0.028-0.009,0.188-0.132,0.214-0.144c0.071-0.032,0.145-0.117,0.154-0.228c0.259,0.092,0.619,0.184,0.647,0.203
		c0.038,0.025,0.882,0.13,1.162,0.227c0.215,0.075,0.771,0.206,0.805,0.432c0.021,0.141-0.26,0.065-0.361-0.019
		C22.111,45.343,21.831,45.077,20.871,45.094z M20.381,39.566c0.035,0.069,0.425-0.004,0.732-0.1
		c0.013,0.097,0.036,0.196,0.062,0.256c0.113,0.259,0.981-0.234,1.01,0.505c0.008,0.216-0.441,0.213-0.811,0.249
		c-0.039-0.068-0.079-0.127-0.115-0.165c-0.286-0.303-0.825-0.227-1.094-0.32c-0.092-0.032-0.199-0.12-0.309-0.218
		C20.138,39.632,20.36,39.523,20.381,39.566z M15.751,39.616c0.37,0.017,0.69,0.017,0.758,0.202c0.022,0.06,0.113,0.114,0.241,0.156
		c-0.112,0.041-0.214,0.081-0.289,0.118c-0.057,0.025-0.128,0.055-0.203,0.088c-0.657,0.251-0.624-0.171-0.639-0.374
		c-0.004-0.054-0.014-0.139-0.027-0.228C15.646,39.599,15.699,39.614,15.751,39.616z M17.151,43.931
		c-1.398-0.118-1.526,0.217-1.919,0.522c-0.007,0.006-0.019,0.01-0.03,0.015c-0.018-0.077-0.053-0.159-0.115-0.247
		c-0.379-0.53-0.328-0.328-0.278-0.884c0.051-0.555-0.404-0.303-0.152-0.69c0.252-0.387-0.387-0.421-0.286-1.094
		c0.101-0.673,0.034-1.01-0.118-1.145c-0.152-0.135-0.337-0.556-0.067-1.01c0.269-0.455,0.067-0.943,0.067-0.943l0.178,0.052
		c0.231,0.231,0.429,0.45,0.608,0.635c-0.06,0.025-0.113,0.051-0.144,0.075c-0.303,0.23-0.623,0.842-0.269,1.498
		c0.089,0.165,0.224,0.378,0.408,0.566c-0.16,0.347-0.468,0.848-0.172,1.488c0.303,0.657,1.027,0.993,3.165,0.522
		c0.092-0.02,0.177-0.041,0.26-0.061c-0.176,0.215-0.383,0.523-0.314,0.886C17.784,44.031,17.532,43.963,17.151,43.931z
		 M23.884,44.499c-0.118,0.118-0.421,0.657-0.286,0.892c0.135,0.236,0.337,0.253,0.151,0.421c-0.185,0.168-0.573,0.791-0.623,0.96
		l-0.067,0.017c-0.296,0.033-0.685,0.258-0.704,0.347c0-0.068-0.04-0.304-0.39-0.33c-0.39-0.029-0.359,0.201-0.545-0.062
		c0.643,0.081,1.609,0.13,2.011-0.574c0.404-0.707-0.05-1.33-0.404-1.633c-0.104-0.089-0.204-0.157-0.304-0.217
		c0.481,0.024,0.795-0.216,0.974-0.553C23.818,43.935,23.992,44.391,23.884,44.499z"/>
	<polygon id="XMLID_1_" style="fill:#867743;" points="23.056,30.505 22.97,30.35 22.723,30.199 22.364,30.073 22.026,29.963 
		21.613,29.868 21.392,29.823 20.985,29.803 20.762,29.803 20.336,29.864 19.684,29.978 19.305,30.011 18.999,30.042 18.632,30.042 
		18.329,29.992 18.133,29.949 17.753,29.807 17.354,29.646 17.049,29.56 16.769,29.439 16.466,29.358 16.134,29.343 15.76,29.355 
		15.353,29.38 15.081,29.432 14.673,29.536 14.305,29.647 13.893,29.805 13.616,29.966 13.364,30.121 13.163,30.317 13.046,30.479 
		12.956,30.662 12.886,30.912 12.861,31.112 12.871,31.585 12.908,31.862 12.968,32.259 13.026,32.674 13.059,33.136 13.096,33.766 
		13.183,34.297 13.187,34.896 13.226,35.263 13.315,35.684 13.393,35.973 13.563,36.243 13.766,36.335 13.994,36.346 14.379,36.298 
		14.656,36.182 14.963,36.058 15.219,35.907 15.47,35.631 15.555,35.527 15.734,35.389 15.89,35.281 16.037,35.238 16.314,35.176 
		16.758,35.098 17.095,35.005 17.383,34.872 17.658,34.72 17.864,34.521 17.982,34.307 18.048,34.075 18.069,34.092 18.162,34.24 
		18.241,34.441 18.294,34.644 18.401,34.918 18.492,35.078 18.606,35.12 18.718,35.111 18.718,34.976 18.691,34.836 18.68,34.726 
		18.676,34.581 18.717,34.377 18.718,34.142 18.664,34.019 18.683,34.023 19.031,34.036 19.383,33.953 19.955,33.71 20.356,33.48 
		20.697,33.251 20.984,32.911 21.166,32.623 21.592,32.007 21.757,31.706 21.95,31.396 22.156,31.084 22.394,30.875 22.597,30.761 
		22.829,30.695 23.098,30.695 	"/>
</g>
<g id="Layer_1">
</g>
</svg>
