<?xml version="1.0" encoding="iso-8859-1"?>
<!-- Generator: Adobe Illustrator 19.0.0, SVG Export Plug-In . SVG Version: 6.00 Build 0)  -->
<svg version="1.1" xmlns="http://www.w3.org/2000/svg" xmlns:xlink="http://www.w3.org/1999/xlink" x="0px" y="0px"
	 viewBox="0 0 97.445 97.445" style="enable-background:new 0 0 97.445 97.445;" xml:space="preserve">
<g id="Layer_9">
	<g id="XMLID_12_">
		<path id="XMLID_17_" style="fill:#667A91;" d="M54.374,55.183c5.061-6.071,9.597-12.148,12.097-18.795l-0.001,0.006
			c3.72-7.943,4.85-19.301,0.061-28.479l0,0c-0.262-0.705-0.55-1.408-0.863-2.11c-2.192-0.864-4.466-1.563-6.806-2.088
			c0.646,0.863,1.278,1.73,1.881,2.598H36.73c0.535-0.848,1.097-1.69,1.678-2.527c-2.07,0.478-4.089,1.091-6.047,1.837
			c-3.775,9.629-3.619,21.555,0.43,28.881c0-0.001,0-0.004,0-0.005c-0.026-0.06-0.041-0.122-0.064-0.182
			c1.883,4.856,4.961,9.58,8.548,14.208c1.748,2.26,3.577,4.465,5.422,6.641c-1.481,1.768-2.951,3.555-4.363,5.382
			c-3.761,4.87-6.975,9.831-8.828,14.946c0-0.004,0-0.004,0-0.005c-2.327,4.614-2.923,10.477-2.559,15.903
			c0.305,0.128,0.617,0.243,0.927,0.366c0.014,0.078,0.029,0.156,0.045,0.238c0.005-0.073,0.01-0.145,0.015-0.215
			c1.022,0.402,2.057,0.781,3.112,1.111h27.483c1.032-0.322,2.041-0.691,3.039-1.082c0.497-0.195,0.992-0.392,1.48-0.603
			c0.361-0.155,0.716-0.32,1.073-0.486c0.479-6.627-0.798-13.463-2.546-17.602C63.282,66.777,59.11,60.96,54.374,55.183z
			 M31.824,22.646c-0.277-0.949-0.494-1.911-0.661-2.883c0.163-0.972,0.393-1.933,0.658-2.888h34.67
			c0.282,0.749,0.536,1.502,0.757,2.258c0.276,0.951,0.497,1.916,0.663,2.888c-0.067,0.398-0.171,0.79-0.253,1.187H32.011
			C31.952,23.021,31.88,22.834,31.824,22.646z M35.463,8.43h26.689c1.335,2.087,2.514,4.198,3.472,6.333H32.486
			C33.277,12.597,34.287,10.492,35.463,8.43z M67.125,25.322c-0.156,0.529-0.305,1.06-0.492,1.582
			c-0.585,1.617-1.299,3.197-2.105,4.752H35.885c-1.238-2.087-2.301-4.198-3.133-6.335H67.125z M63.369,33.768
			c-1.25,2.149-2.677,4.253-4.22,6.336H41.774c-0.164-0.211-0.334-0.419-0.498-0.631c-1.461-1.886-2.829-3.786-4.077-5.705H63.369z
			 M57.54,42.213c-1.657,2.119-3.412,4.223-5.209,6.337h-3.556c-1.785-2.086-3.573-4.19-5.317-6.337H57.54z M50.557,59.687
			c1.64,1.923,3.254,3.836,4.8,5.756h-9.677C47.289,63.5,48.929,61.587,50.557,59.687z M42.335,69.609
			c0.533-0.691,1.076-1.375,1.622-2.056h13.058c1.605,2.085,3.102,4.191,4.435,6.335H39.209
			C40.192,72.453,41.239,71.026,42.335,69.609z M37.817,76h24.885c1.129,2.014,2.109,4.063,2.873,6.176
			c0.019,0.054,0.031,0.107,0.05,0.161H34.399C35.338,80.202,36.498,78.089,37.817,76z M32.023,90.784
			c0.055-0.492,0.118-0.982,0.202-1.471c0.165-0.967,0.383-1.929,0.659-2.879c0.193-0.666,0.419-1.326,0.661-1.986h32.733
			c0.229,0.864,0.425,1.736,0.571,2.614c-0.165,0.969-0.383,1.934-0.658,2.884c-0.082,0.28-0.188,0.558-0.279,0.837H32.023z"/>
		<g id="XMLID_13_">
			<path id="XMLID_14_" style="fill:#667A91;" d="M48.722,97.445C21.857,97.445,0,75.589,0,48.723S21.857,0,48.722,0
				s48.723,21.857,48.723,48.723S75.587,97.445,48.722,97.445z M48.722,3.546c-24.91,0-45.177,20.266-45.177,45.177
				c0,24.91,20.267,45.176,45.177,45.176c24.908,0,45.176-20.266,45.176-45.176C93.898,23.812,73.63,3.546,48.722,3.546z"/>
		</g>
	</g>
</g>
<g id="Layer_1">
</g>
</svg>
