<?xml version="1.0" encoding="iso-8859-1"?>
<!-- Generator: Adobe Illustrator 19.0.0, SVG Export Plug-In . SVG Version: 6.00 Build 0)  -->
<svg version="1.1" xmlns="http://www.w3.org/2000/svg" xmlns:xlink="http://www.w3.org/1999/xlink" x="0px" y="0px"
	 viewBox="0 0 97.445 97.445" style="enable-background:new 0 0 97.445 97.445;" xml:space="preserve">
<g id="Layer_5">
	<g id="XMLID_84_">
		<g id="XMLID_89_">
			<path id="XMLID_93_" style="fill:#C85248;" d="M26.998,58.765c-0.12-0.867-0.237-2.535-0.237-3.409
				c0-1.005,0.149-3.11,0.237-4.111c0.038-0.443,0.228-1.319,0.314-1.758c0.068-0.337,0.205-1.011,0.297-1.34
				c0.223-0.79,0.789-2.33,1.078-3.098c0.378-0.997,1.296-2.932,1.603-3.951c0.088-0.292,0.204-0.899,0.243-1.202
				c0.082-0.668,0.063-2.025,0.123-2.696c0.067-0.812,0.385-2.416,0.502-3.22c0.095-0.644,0.238-1.937,0.348-2.577
				c0.127-0.722,0.476-2.15,0.612-2.873c0.097-0.524,0.245-1.582,0.347-2.105c0.111-0.575,0.348-1.718,0.506-2.281
				c0.058-0.211,0.117-0.685,0.279-0.834c0.083-0.077,0.321-0.088,0.434-0.105c0.308-0.049,0.941-0.119,1.252-0.088
				c0.309,0.032,0.907,0.229,1.201,0.33c0.85,0.301,2.471,1.762,3.309,1.43c0.093-0.04,0.122-0.274,0.156-0.369
				c0.127-0.391,0.269-1.203,0.381-1.6c0.118-0.423,0.458-1.239,0.542-1.671c0.076-0.399,0.135-1.215,0.105-1.617
				c-0.02-0.219-0.123-0.649-0.192-0.855c-0.221-0.632-0.798-1.852-1.15-2.42c-0.045-0.07-0.172-0.186-0.211-0.259
				c-0.023-0.05-0.081-0.156-0.068-0.21c0.1-0.538,0.984-1.331,1.41-1.672c0.294-0.236,0.973-0.6,1.342-0.695
				c0.353-0.093,1.151-0.242,1.461-0.054c0.086,0.054,0.124,0.278,0.175,0.367c0.434,0.799,1.486,2.293,1.913,3.097
				c0.068,0.129,0.101,0.497,0.245,0.539c0.122,0.038,0.371-0.15,0.435-0.261c0.113-0.202-0.017-0.704,0-0.937
				c0.02-0.318,0.118-0.944,0.171-1.256c0.044-0.236,0.093-0.729,0.21-0.94c0.125-0.223,0.497-0.616,0.731-0.712
				c0.22-0.091,0.725-0.091,0.941,0c0.316,0.128,0.826,0.649,0.974,0.956c0.1,0.205-0.061,0.749,0.104,0.905
				c0.063,0.056,0.273,0.074,0.332,0.017c0.123-0.118-0.036-0.512,0-0.677c0.031-0.133,0.117-0.408,0.225-0.489
				c0.257-0.192,0.961-0.269,1.274-0.191c0.377,0.095,1.076,0.59,1.252,0.938c0.279,0.558-0.293,1.941,0,2.49
				c0.03,0.055,0.149,0.115,0.207,0.139c0.266,0.12,0.845,0.232,1.133,0.296c0.273,0.06,0.828,0.133,1.095,0.21
				c0.274,0.076,0.816,0.26,1.063,0.399c0.291,0.164,0.794,0.613,1.063,0.819c0.396,0.303,1.218,0.873,1.584,1.216
				c0.283,0.27,0.775,0.885,1.026,1.186c0.283,0.338,0.872,0.997,1.098,1.374c0.17,0.284,0.374,0.924,0.524,1.219
				c0.058,0.122,0.164,0.392,0.278,0.47c0.131,0.095,0.489,0.06,0.644,0.123c0.341,0.138,0.975,0.552,1.234,0.818
				c0.205,0.209,0.486,0.734,0.626,0.992c0.108,0.196,0.286,0.609,0.365,0.818c0.101,0.26,0.262,0.794,0.332,1.061
				c0.065,0.247,0.202,0.737,0.227,0.992c0.04,0.385,0.017,1.165-0.035,1.549c-0.061,0.431-0.302,1.273-0.435,1.687
				c-0.086,0.266-0.242,0.813-0.402,1.045c-0.388,0.571-1.756,1.232-2.033,1.863c-0.195,0.438,0.166,1.466,0,1.914
				c-0.034,0.086-0.21,0.195-0.244,0.279c-0.383,0.896-0.273,2.962,0,3.9c0.014,0.052,0.09,0.143,0.123,0.191
				c0.173,0.248,0.558,0.718,0.746,0.955c0.393,0.507,1.214,1.489,1.568,2.022c0.303,0.462,0.832,1.436,1.075,1.932
				c0.243,0.489,0.686,1.489,0.874,2.001c0.052,0.145,0.133,0.444,0.171,0.592c0.032,0.123,0.068,0.37,0.103,0.489
				c0.123,0.387,0.507,1.109,0.63,1.498c0.274,0.854,0.807,2.568,1.114,3.409c0.101,0.279,0.362,0.815,0.452,1.098
				c0.072,0.216,0.154,0.664,0.211,0.887c0.038,0.165,0.117,0.499,0.173,0.661c0.086,0.262,0.338,0.762,0.417,1.028
				c0.065,0.216,0.122,0.667,0.173,0.887c0.05,0.206,0.169,0.614,0.227,0.817c0.058,0.206,0.2,0.611,0.246,0.818
				c0.067,0.323,0.119,0.981,0.172,1.307c0.069,0.445,0.291,1.325,0.332,1.773c0.05,0.547,0.329,3.56,0.329,4.108
				c0,1.672-0.182,3.105-0.329,4.77c-0.12,1.321-0.545,3.956-0.941,5.221c-0.394,1.26-1.253,3.877-2.192,4.806
				c-0.425,0.417-1.6,0.813-2.174,0.958c-0.807,0.202-2.48,0.266-3.308,0.259c-1.499-0.012-3.188-0.175-4.678-0.341
				c-0.735-0.082-3.455-0.444-4.179-0.602c-0.759-0.17-2.285-0.686-3.014-0.954c-1.241-0.455-3.691-1.422-4.876-2.002
				c-0.752-0.367-2.188-1.239-2.907-1.671c-0.592-0.356-1.774-1.075-2.347-1.462c-0.864-0.581-2.558-1.792-3.361-2.453
				c-0.544-0.448-1.58-1.407-2.069-1.915c-0.571-0.59-1.622-1.855-2.146-2.49c-0.358-0.435-1.082-1.301-1.392-1.774
				c-0.483-0.746-1.293-2.342-1.671-3.149c-0.2-0.429-0.544-1.315-0.713-1.758c-0.252-0.682-0.44-0.944-0.64-1.641
				C27.526,61.16,27.112,59.575,26.998,58.765z"/>
			<path id="XMLID_90_" style="fill:#C85248;" d="M61.868,84.528h-0.129c-1.52-0.014-3.235-0.181-4.716-0.344
				c-0.704-0.078-3.46-0.442-4.213-0.608c-0.817-0.181-2.417-0.731-3.062-0.969c-1.274-0.465-3.713-1.429-4.912-2.016
				c-0.685-0.335-1.885-1.054-2.676-1.531L41.9,78.904c-0.557-0.332-1.769-1.07-2.368-1.471c-0.863-0.582-2.566-1.8-3.385-2.475
				c-0.554-0.456-1.596-1.42-2.103-1.945c-0.599-0.62-1.71-1.961-2.161-2.509l-0.146-0.179c-0.392-0.476-0.988-1.198-1.269-1.631
				c-0.497-0.76-1.307-2.354-1.698-3.194c-0.202-0.433-0.544-1.305-0.725-1.786c-0.099-0.262-0.186-0.459-0.266-0.643
				c-0.133-0.297-0.256-0.576-0.383-1.025c-0.21-0.74-0.644-2.369-0.763-3.231c-0.125-0.895-0.242-2.574-0.242-3.459
				c0-1.073,0.161-3.256,0.238-4.144c0.035-0.398,0.174-1.078,0.275-1.576l0.045-0.222c0.063-0.302,0.205-1.015,0.303-1.367
				c0.248-0.883,0.899-2.618,1.088-3.128c0.15-0.398,0.381-0.936,0.63-1.503c0.366-0.855,0.782-1.822,0.964-2.425
				c0.082-0.274,0.196-0.855,0.229-1.139c0.045-0.353,0.059-0.926,0.074-1.477c0.01-0.461,0.019-0.896,0.049-1.207
				c0.046-0.535,0.196-1.39,0.325-2.146c0.07-0.419,0.139-0.809,0.182-1.097c0.036-0.248,0.081-0.602,0.128-0.973
				c0.076-0.597,0.154-1.216,0.222-1.612c0.07-0.403,0.206-1.01,0.337-1.599c0.108-0.484,0.211-0.954,0.273-1.279
				c0.047-0.25,0.106-0.625,0.163-1.001c0.068-0.416,0.135-0.832,0.188-1.106c0.111-0.589,0.352-1.739,0.508-2.308
				c0.015-0.047,0.028-0.106,0.041-0.173c0.076-0.365,0.15-0.657,0.346-0.837c0.142-0.129,0.338-0.161,0.563-0.188l0.064-0.009
				c0.292-0.042,0.988-0.123,1.348-0.088c0.37,0.037,1.02,0.256,1.284,0.35c0.33,0.116,0.732,0.365,1.156,0.634
				c0.607,0.379,1.375,0.859,1.795,0.821c0.004-0.019,0.006-0.036,0.01-0.049c0.012-0.045,0.021-0.083,0.031-0.113
				c0.068-0.204,0.147-0.566,0.215-0.887c0.059-0.266,0.114-0.521,0.16-0.699c0.052-0.173,0.138-0.415,0.229-0.668
				c0.124-0.348,0.261-0.74,0.306-0.973c0.069-0.355,0.132-1.143,0.097-1.52c-0.01-0.177-0.105-0.576-0.171-0.759
				c-0.215-0.625-0.773-1.806-1.111-2.345c-0.014-0.019-0.037-0.042-0.06-0.072c-0.06-0.064-0.119-0.131-0.16-0.207
				c-0.101-0.186-0.132-0.325-0.107-0.455c0.132-0.699,1.122-1.555,1.544-1.891c0.316-0.254,1.045-0.653,1.475-0.764
				c0.286-0.076,0.721-0.156,1.083-0.156c0.286,0,0.504,0.047,0.663,0.145c0.174,0.105,0.238,0.297,0.284,0.438
				c0.008,0.028,0.017,0.054,0.023,0.073c0.204,0.367,0.562,0.924,0.909,1.459c0.383,0.594,0.778,1.207,1.009,1.636
				c0.008,0.019,0.017,0.037,0.026,0.056c-0.006-0.063-0.013-0.129-0.021-0.179c-0.015-0.141-0.031-0.275-0.019-0.39
				c0.022-0.338,0.12-0.971,0.175-1.294c0.013-0.05,0.02-0.115,0.029-0.186c0.059-0.367,0.108-0.663,0.219-0.867
				c0.154-0.274,0.575-0.736,0.917-0.877c0.201-0.081,0.47-0.093,0.612-0.093c0.139,0,0.406,0.013,0.607,0.093
				c0.361,0.147,0.85,0.626,1.084,0.992c0.051-0.088,0.113-0.174,0.191-0.232c0.308-0.232,0.891-0.297,1.182-0.297
				c0.157,0,0.289,0.015,0.399,0.044c0.467,0.117,1.265,0.673,1.493,1.133c0.188,0.379,0.113,0.9,0.032,1.45
				c-0.047,0.333-0.114,0.777-0.056,0.979c0.015,0.008,0.031,0.015,0.056,0.027c0.184,0.083,0.62,0.177,0.883,0.232l0.179,0.04
				c0.107,0.026,0.261,0.05,0.425,0.078c0.252,0.042,0.512,0.087,0.687,0.136c0.297,0.083,0.863,0.279,1.141,0.434
				c0.236,0.129,0.547,0.387,0.823,0.614c0.109,0.09,0.207,0.173,0.285,0.233c0.12,0.092,0.274,0.206,0.448,0.332
				c0.423,0.307,0.896,0.655,1.165,0.91c0.252,0.239,0.629,0.698,0.906,1.032l0.149,0.183c0.06,0.07,0.133,0.157,0.213,0.252
				c0.324,0.376,0.727,0.846,0.918,1.171c0.113,0.188,0.223,0.474,0.333,0.751c0.072,0.186,0.145,0.377,0.204,0.489
				c0.012,0.029,0.031,0.064,0.049,0.102c0.024,0.053,0.078,0.168,0.117,0.223c0.046,0.01,0.127,0.017,0.179,0.023
				c0.129,0.009,0.268,0.02,0.387,0.068c0.402,0.165,1.075,0.611,1.361,0.903c0.214,0.219,0.458,0.645,0.689,1.077
				c0.111,0.21,0.301,0.635,0.387,0.862c0.102,0.273,0.266,0.822,0.343,1.095c0.099,0.391,0.207,0.799,0.234,1.052
				c0.041,0.401,0.022,1.212-0.037,1.637c-0.061,0.443-0.301,1.289-0.451,1.75L64.547,32.9c-0.129,0.411-0.259,0.798-0.413,1.024
				c-0.21,0.309-0.6,0.597-1.018,0.901c-0.406,0.302-0.872,0.645-0.984,0.904c-0.059,0.132-0.012,0.511,0.022,0.786
				c0.052,0.415,0.099,0.805-0.014,1.109c-0.047,0.125-0.143,0.214-0.22,0.284c-0.017,0.014-0.032,0.028-0.041,0.041
				c-0.33,0.821-0.225,2.764,0.024,3.618c0.005-0.008,0.024,0.022,0.04,0.044l0.031,0.041c0.113,0.161,0.338,0.442,0.52,0.666
				c0.082,0.105,0.159,0.201,0.218,0.276c0.111,0.145,0.265,0.332,0.428,0.535c0.399,0.497,0.896,1.116,1.155,1.507
				c0.321,0.488,0.859,1.475,1.102,1.972c0.252,0.512,0.697,1.516,0.889,2.039c0.06,0.17,0.151,0.497,0.186,0.627
				c0.011,0.058,0.027,0.139,0.046,0.228c0.015,0.091,0.036,0.184,0.049,0.242c0.056,0.172,0.182,0.449,0.305,0.713
				c0.129,0.293,0.256,0.567,0.325,0.78l0.161,0.513c0.293,0.926,0.694,2.194,0.944,2.884c0.045,0.118,0.119,0.283,0.193,0.453
				c0.104,0.237,0.209,0.481,0.269,0.657c0.046,0.154,0.097,0.387,0.146,0.611c0.027,0.114,0.046,0.221,0.069,0.301l0.019,0.095
				c0.045,0.166,0.1,0.411,0.147,0.539c0.036,0.114,0.108,0.273,0.181,0.438c0.093,0.215,0.189,0.435,0.237,0.6
				c0.046,0.149,0.083,0.361,0.119,0.57c0.02,0.129,0.042,0.254,0.063,0.339c0.041,0.169,0.129,0.479,0.191,0.69l0.032,0.111
				c0.018,0.068,0.049,0.16,0.081,0.259c0.064,0.202,0.134,0.431,0.169,0.584c0.044,0.209,0.081,0.521,0.115,0.823
				c0.023,0.191,0.042,0.373,0.063,0.501c0.026,0.17,0.077,0.405,0.127,0.654c0.088,0.42,0.178,0.853,0.207,1.146
				c0.119,1.334,0.327,3.647,0.327,4.14c0,1.339-0.111,2.527-0.232,3.784c-0.032,0.33-0.067,0.67-0.095,1.018
				c-0.115,1.28-0.543,3.979-0.959,5.299c-0.821,2.628-1.567,4.25-2.285,4.957c-0.618,0.612-2.325,1.049-2.344,1.052
				C64.281,84.471,62.623,84.528,61.868,84.528z M33.483,23.603c-0.04,0.086-0.086,0.308-0.108,0.421
				c-0.02,0.084-0.036,0.161-0.052,0.218c-0.151,0.55-0.384,1.673-0.496,2.252c-0.055,0.268-0.119,0.676-0.182,1.081
				c-0.059,0.387-0.119,0.768-0.168,1.025c-0.063,0.329-0.17,0.808-0.279,1.301c-0.129,0.579-0.262,1.178-0.33,1.564
				c-0.065,0.382-0.146,1.018-0.218,1.579c-0.049,0.378-0.091,0.734-0.129,0.987c-0.042,0.293-0.11,0.69-0.184,1.116
				c-0.127,0.741-0.273,1.58-0.318,2.084c-0.027,0.287-0.033,0.713-0.046,1.16c-0.012,0.571-0.027,1.16-0.077,1.549
				c-0.037,0.324-0.16,0.946-0.256,1.265c-0.195,0.641-0.598,1.588-0.996,2.5c-0.239,0.562-0.47,1.092-0.615,1.474
				c-0.389,1.037-0.876,2.389-1.069,3.069c-0.091,0.324-0.23,1.014-0.289,1.311l-0.045,0.224c-0.092,0.453-0.232,1.138-0.264,1.495
				c-0.095,1.084-0.237,3.13-0.237,4.078c0,0.841,0.12,2.504,0.237,3.358c0.106,0.762,0.499,2.29,0.741,3.132
				c0.114,0.398,0.224,0.643,0.348,0.928c0.086,0.196,0.179,0.406,0.284,0.684c0.169,0.457,0.512,1.322,0.703,1.731
				c0.394,0.853,1.188,2.405,1.644,3.106c0.26,0.397,0.862,1.127,1.22,1.562l0.145,0.179c0.448,0.543,1.545,1.867,2.125,2.468
				c0.484,0.499,1.513,1.451,2.042,1.886c0.8,0.661,2.476,1.858,3.329,2.431c0.584,0.394,1.782,1.123,2.334,1.453l0.26,0.155
				c0.735,0.44,1.963,1.179,2.621,1.5c1.123,0.552,3.531,1.508,4.839,1.986c0.804,0.297,2.256,0.782,2.966,0.941
				c0.682,0.151,3.349,0.508,4.143,0.597c1.46,0.161,3.149,0.326,4.637,0.339h0.123c0.842,0,2.362-0.067,3.092-0.25
				c0.612-0.154,1.674-0.535,2.004-0.863c0.622-0.611,1.329-2.175,2.1-4.652c0.402-1.274,0.815-3.898,0.926-5.144
				c0.032-0.35,0.063-0.689,0.096-1.022c0.119-1.239,0.232-2.411,0.232-3.715c0-0.334-0.122-1.858-0.328-4.072
				c-0.022-0.252-0.113-0.684-0.191-1.061c-0.056-0.264-0.109-0.511-0.138-0.69c-0.019-0.137-0.04-0.329-0.065-0.533
				c-0.032-0.273-0.065-0.582-0.101-0.754c-0.026-0.118-0.095-0.337-0.154-0.512c-0.033-0.106-0.065-0.207-0.086-0.282l-0.029-0.109
				c-0.067-0.224-0.161-0.548-0.202-0.727c-0.02-0.096-0.046-0.237-0.072-0.381c-0.031-0.178-0.065-0.378-0.095-0.485
				c-0.036-0.12-0.129-0.329-0.209-0.516c-0.083-0.186-0.164-0.369-0.209-0.498c-0.05-0.151-0.109-0.41-0.159-0.597l-0.022-0.093
				c-0.02-0.085-0.046-0.2-0.07-0.323c-0.041-0.198-0.092-0.421-0.131-0.54c-0.044-0.141-0.149-0.379-0.242-0.588
				c-0.081-0.187-0.159-0.366-0.205-0.497c-0.259-0.704-0.663-1.982-0.956-2.914l-0.164-0.511c-0.053-0.171-0.178-0.44-0.294-0.698
				c-0.137-0.301-0.266-0.585-0.33-0.803c-0.027-0.079-0.051-0.204-0.077-0.32c-0.012-0.072-0.022-0.138-0.036-0.186
				c-0.038-0.154-0.118-0.434-0.161-0.557c-0.181-0.496-0.614-1.479-0.855-1.964c-0.243-0.492-0.763-1.449-1.056-1.892
				c-0.243-0.364-0.723-0.967-1.118-1.451c-0.165-0.207-0.318-0.398-0.431-0.545c-0.058-0.074-0.133-0.166-0.214-0.269
				c-0.195-0.242-0.419-0.522-0.548-0.703c-0.084-0.119-0.143-0.202-0.174-0.3c-0.284-0.977-0.42-3.126,0.015-4.148
				c0.049-0.115,0.137-0.192,0.209-0.261c0.014-0.013,0.027-0.024,0.041-0.036c0.034-0.151-0.005-0.469-0.036-0.725
				c-0.055-0.44-0.106-0.858,0.033-1.176c0.193-0.437,0.717-0.823,1.224-1.197c0.347-0.254,0.704-0.518,0.844-0.723
				c0.106-0.155,0.243-0.594,0.318-0.828l0.038-0.122c0.133-0.419,0.364-1.229,0.42-1.626c0.05-0.367,0.069-1.118,0.034-1.461
				c-0.023-0.214-0.151-0.682-0.209-0.906c-0.083-0.293-0.236-0.81-0.33-1.054c-0.074-0.2-0.25-0.598-0.343-0.776
				c-0.106-0.2-0.396-0.734-0.565-0.908c-0.214-0.219-0.807-0.611-1.111-0.734c-0.023-0.009-0.113-0.014-0.17-0.019
				c-0.192-0.015-0.389-0.033-0.547-0.143c-0.159-0.11-0.257-0.303-0.359-0.526l-0.04-0.079c-0.072-0.145-0.15-0.343-0.23-0.554
				c-0.093-0.238-0.2-0.506-0.278-0.641c-0.16-0.27-0.557-0.734-0.846-1.072c-0.082-0.095-0.156-0.183-0.218-0.256l-0.152-0.188
				c-0.25-0.301-0.625-0.758-0.842-0.964C57.859,20.429,57.38,20.08,57,19.8c-0.178-0.129-0.341-0.247-0.461-0.342
				c-0.084-0.064-0.192-0.15-0.307-0.25c-0.241-0.195-0.536-0.442-0.711-0.538c-0.206-0.113-0.709-0.292-0.982-0.369
				c-0.136-0.037-0.389-0.081-0.612-0.116c-0.178-0.031-0.346-0.06-0.466-0.086l-0.175-0.038c-0.325-0.072-0.771-0.169-1.025-0.282
				c-0.205-0.092-0.32-0.183-0.383-0.301c-0.206-0.385-0.128-0.919-0.047-1.483c0.06-0.375,0.128-0.845,0.042-1.015
				c-0.118-0.232-0.713-0.672-1.014-0.749c-0.027-0.005-0.088-0.018-0.22-0.018c-0.338,0-0.655,0.084-0.741,0.146
				c-0.005,0.017-0.06,0.159-0.083,0.271c0,0.024,0.013,0.082,0.019,0.142c0.038,0.219,0.088,0.521-0.127,0.727
				c-0.096,0.09-0.232,0.137-0.385,0.137c-0.092,0-0.307-0.015-0.453-0.154c-0.214-0.202-0.198-0.512-0.191-0.782
				c0.005-0.083,0.012-0.209,0-0.25c-0.111-0.228-0.558-0.67-0.775-0.758c-0.038-0.014-0.158-0.04-0.328-0.04
				c-0.173,0-0.293,0.026-0.333,0.04c-0.132,0.052-0.451,0.373-0.548,0.55c-0.059,0.104-0.108,0.439-0.135,0.618
				c-0.013,0.081-0.026,0.152-0.034,0.209c-0.056,0.31-0.147,0.923-0.169,1.214c-0.005,0.049,0.01,0.159,0.019,0.257
				c0.033,0.297,0.067,0.602-0.067,0.836c-0.105,0.191-0.433,0.455-0.721,0.455h-0.055l-0.091-0.02
				c-0.286-0.091-0.369-0.388-0.425-0.606c-0.013-0.045-0.022-0.087-0.037-0.118c-0.209-0.397-0.597-0.997-0.971-1.576
				c-0.37-0.574-0.722-1.115-0.937-1.513c-0.024-0.046-0.051-0.114-0.074-0.188c-0.009-0.019-0.015-0.038-0.019-0.058
				c-0.045-0.01-0.114-0.021-0.23-0.021c-0.293,0-0.666,0.072-0.895,0.131c-0.324,0.086-0.95,0.428-1.205,0.628
				c-0.639,0.511-1.151,1.078-1.261,1.388c0.006,0.012,0.013,0.021,0.015,0.028c0.013,0.017,0.037,0.045,0.061,0.074
				c0.054,0.06,0.108,0.123,0.137,0.168c0.361,0.582,0.95,1.819,1.183,2.495c0.074,0.213,0.188,0.675,0.211,0.944
				c0.035,0.449-0.035,1.306-0.111,1.717c-0.055,0.287-0.197,0.689-0.339,1.079c-0.082,0.237-0.161,0.459-0.207,0.622
				c-0.046,0.166-0.095,0.403-0.147,0.653c-0.081,0.356-0.161,0.723-0.239,0.965c-0.006,0.015-0.013,0.035-0.018,0.058
				c-0.044,0.174-0.106,0.434-0.351,0.534c-0.127,0.051-0.265,0.076-0.414,0.076c-0.65,0-1.413-0.476-2.144-0.933
				c-0.389-0.244-0.755-0.476-1.011-0.563c-0.366-0.131-0.878-0.288-1.116-0.312c-0.283-0.029-0.881,0.041-1.159,0.085l-0.093,0.012
				C33.605,23.585,33.533,23.595,33.483,23.603z"/>
		</g>
		<g id="XMLID_85_">
			<path id="XMLID_86_" style="fill:#C85248;" d="M48.722,97.445C21.858,97.445,0,75.589,0,48.723C0,21.858,21.858,0,48.722,0
				c26.866,0,48.723,21.858,48.723,48.723C97.445,75.589,75.588,97.445,48.722,97.445z M48.722,3.546
				c-24.91,0-45.176,20.267-45.176,45.177s20.266,45.176,45.176,45.176c24.908,0,45.176-20.266,45.176-45.176
				S73.63,3.546,48.722,3.546z"/>
		</g>
	</g>
</g>
<g id="Layer_1">
</g>
</svg>
