<?xml version="1.0" encoding="iso-8859-1"?>
<!-- Generator: Adobe Illustrator 19.0.0, SVG Export Plug-In . SVG Version: 6.00 Build 0)  -->
<svg version="1.1" xmlns="http://www.w3.org/2000/svg" xmlns:xlink="http://www.w3.org/1999/xlink" x="0px" y="0px"
	 viewBox="0 0 97.444 97.445" style="enable-background:new 0 0 97.444 97.445;" xml:space="preserve">
<g id="Layer_4">
	<g id="XMLID_187_">
		<g id="XMLID_192_">
			<path id="XMLID_196_" style="fill:#C6C7E4;" d="M58.622,51.567c0.147-0.75,0.928-3.524,1.027-4.284
				c0.037-0.304,0.018-0.916,0-1.223c-0.019-0.344-0.07-1.039-0.155-1.374c-0.1-0.4-0.466-1.144-0.611-1.527
				c-0.236-0.632-0.695-1.894-0.899-2.536c-0.156-0.501-0.417-1.523-0.566-2.029c-0.133-0.476-0.421-1.427-0.566-1.899
				c-0.088-0.297-0.157-0.951-0.369-1.177c-0.369-0.396-2.01-0.787-2.01-0.787l-2.267-1.397l-1.179-1.267l-1.312-1.439l-1.463-2.291
				L46.9,25.742l-0.437-1.794l-0.392-1.725l-0.154-1.636l-0.067-1.571l-0.064-1.659h5.326l0.306,2.467l0.351,1.987l0.566,2.052
				l0.786,1.919l0.828,1.181l1.307,1.111c0,0,1.23,0.455,1.66,0.458c0.391,0.005,1.146-0.243,1.508-0.389
				c0.599-0.252,1.701-0.957,2.247-1.314c0.672-0.437,1.911-1.46,2.598-1.874c0.539-0.326,1.667-0.883,2.249-1.114
				c0.461-0.186,1.404-0.518,1.897-0.59c1.024-0.154,3.126-0.15,4.147,0.024c0.565,0.092,1.645,0.497,2.161,0.741
				c0.743,0.348,2.142,1.224,2.796,1.726c0.923,0.707,2.613,2.327,3.403,3.183c0.571,0.62,1.651,1.924,2.098,2.641
				c0.535,0.872,1.348,2.767,1.745,3.712c0.383,0.916,1.11,2.772,1.371,3.729c0.218,0.786,0.489,2.387,0.593,3.187
				c0.151,1.191,0.317,3.584,0.326,4.783c0.006,0.989-0.101,2.966-0.195,3.95c-0.114,1.169-0.366,3.513-0.657,4.648
				c-0.246,0.963-1.026,2.801-1.419,3.712c-0.417,0.968-1.295,2.888-1.836,3.8c-0.467,0.799-1.558,2.304-2.135,3.033
				c-0.677,0.851-2.134,2.464-2.883,3.251c-0.821,0.863-2.477,2.574-3.407,3.317c-1,0.805-3.166,2.207-4.297,2.815
				c-0.873,0.47-2.718,1.221-3.647,1.57c-0.909,0.34-2.741,0.979-3.688,1.18c-0.892,0.194-2.727,0.362-3.646,0.415
				c-0.945,0.053-2.849,0.084-3.793,0c-0.78-0.067-2.325-0.291-3.078-0.477c-0.789-0.198-2.308-0.751-3.056-1.051
				c-1.037-0.416-3.071-1.339-4.062-1.854c-0.743-0.385-2.206-1.188-2.883-1.683c-0.37-0.266-1.033-0.913-1.371-1.22
				c-0.489-0.444-1.356-1.463-1.924-1.791c-0.17-0.103-0.563-0.233-0.763-0.244c-0.184-0.001-0.54,0.131-0.72,0.177
				c-0.385,0.107-1.133,0.405-1.527,0.483c-0.27,0.051-0.821,0.097-1.09,0.086c-0.488-0.019-1.47-0.131-1.924-0.308
				c-0.283-0.108-0.772-0.501-1.023-0.677c-0.265-0.181-0.777-0.588-1.05-0.764c-0.165-0.107-0.498-0.358-0.696-0.392
				c-0.169-0.032-0.518,0.047-0.68,0.11c-0.256,0.103-0.731,0.424-0.913,0.63c-0.489,0.556-1.074,1.94-1.356,2.622
				c-0.168,0.406-0.417,1.252-0.524,1.68c-0.128,0.54-0.306,1.637-0.392,2.182c-0.105,0.669-0.289,2.012-0.371,2.684
				c-0.038,0.305-0.131,1.225-0.131,1.225h-6.765c0,0,0.085-1.789,0.151-2.381c0.067-0.633,0.269-1.888,0.393-2.51
				c0.2-1.019,0.666-3.044,0.959-4.035c0.131-0.446,0.452-1.312,0.613-1.749c0.206-0.562,0.617-1.684,0.872-2.225
				c0.274-0.583,0.881-1.718,1.242-2.248c0.355-0.518,1.154-1.481,1.596-1.924c0.353-0.353,1.129-1.008,1.549-1.287
				c0.44-0.29,1.389-0.762,1.878-0.959c0.347-0.141,1.064-0.404,1.438-0.435c0.472-0.044,1.422,0.097,1.879,0.218
				c0.538,0.14,1.54,0.634,2.052,0.851c0.425,0.182,1.308,0.496,1.7,0.743c0.324,0.2,0.85,0.753,1.157,0.98
				c0.252,0.187,0.744,0.608,1.049,0.678c0.233,0.05,0.762-0.112,0.961-0.13c0.193-0.024,1.311-0.581,1.764-0.722
				c0.561-0.173,1.73-0.322,2.315-0.349c0.453-0.024,1.357,0.07,1.811,0.088c0.383,0.014,1.148,0.014,1.529,0.044
				c0.416,0.029,1.244,0.156,1.659,0.197c0.367,0.036,1.375,0.109,1.463,0.155c0.09,0.04,0.586,0.17,0.782,0.148
				c0.21-0.018,0.608-0.173,0.787-0.282c0.543-0.322,1.411-1.257,1.877-1.679c0.607-0.556,1.773-1.722,2.403-2.251
				c0.582-0.484,1.818-1.354,2.399-1.832c0.343-0.283,1.013-0.873,1.334-1.18c0.107-0.103,0.373-0.29,0.413-0.437
				C58.531,54.278,58.36,52.886,58.622,51.567z"/>
			<path id="XMLID_193_" style="fill:#C6C7E4;" d="M25.277,80.48h-7.535l0.023-0.413c0-0.07,0.086-1.805,0.152-2.401
				c0.072-0.655,0.277-1.928,0.397-2.545c0.213-1.076,0.684-3.089,0.972-4.07c0.141-0.483,0.501-1.455,0.617-1.774l0.06-0.166
				c0.221-0.588,0.586-1.584,0.827-2.089c0.274-0.584,0.891-1.744,1.275-2.303c0.364-0.537,1.179-1.513,1.641-1.977
				c0.365-0.367,1.164-1.045,1.612-1.337c0.46-0.307,1.424-0.788,1.944-0.999c0.173-0.07,1.06-0.421,1.554-0.463
				c0.506-0.046,1.502,0.095,2.011,0.227c0.424,0.113,1.08,0.41,1.609,0.65c0.187,0.085,0.36,0.163,0.497,0.223
				c0.114,0.047,0.261,0.106,0.421,0.17c0.476,0.188,1.019,0.4,1.335,0.601c0.215,0.131,0.479,0.371,0.735,0.604
				c0.164,0.154,0.334,0.31,0.451,0.395c0.049,0.034,0.106,0.082,0.17,0.131c0.186,0.143,0.566,0.442,0.727,0.478
				c0.002,0,0.002,0,0.002,0c0.157,0,0.37-0.051,0.528-0.084c0.124-0.024,0.229-0.047,0.301-0.056
				c0.071-0.02,0.425-0.179,0.689-0.291c0.374-0.166,0.759-0.338,1.006-0.413c0.606-0.188,1.809-0.336,2.412-0.367
				c0.316-0.017,0.828,0.019,1.27,0.049c0.222,0.017,0.424,0.031,0.572,0.038c0.143,0.007,0.341,0.01,0.551,0.011
				c0.348,0.007,0.745,0.014,0.992,0.032c0.252,0.02,0.632,0.07,0.992,0.115c0.261,0.035,0.504,0.067,0.679,0.085
				c0.096,0.01,0.239,0.019,0.399,0.034c0.969,0.085,1.093,0.104,1.2,0.156c0.07,0.028,0.42,0.113,0.565,0.113
				c0.133-0.012,0.476-0.138,0.629-0.23c0.352-0.211,0.923-0.768,1.34-1.181c0.182-0.173,0.342-0.332,0.47-0.45
				c0.228-0.206,0.528-0.496,0.845-0.802c0.547-0.523,1.168-1.118,1.573-1.457c0.311-0.259,0.8-0.625,1.271-0.975
				c0.42-0.314,0.859-0.636,1.13-0.862c0.333-0.272,0.986-0.849,1.308-1.156c0.031-0.033,0.076-0.071,0.124-0.111
				c0.055-0.045,0.155-0.131,0.193-0.175c0.169-0.659,0.202-1.342,0.237-2.066c0.029-0.62,0.06-1.262,0.181-1.888
				c0.067-0.31,0.225-0.927,0.408-1.641c0.252-0.975,0.562-2.187,0.616-2.617c0.031-0.233,0.019-0.743-0.004-1.15
				c-0.024-0.458-0.073-1.038-0.141-1.3c-0.055-0.226-0.229-0.625-0.369-0.948c-0.093-0.205-0.173-0.397-0.228-0.54
				c-0.25-0.657-0.7-1.91-0.9-2.55c-0.101-0.317-0.241-0.832-0.364-1.29c-0.081-0.287-0.152-0.556-0.21-0.751
				c-0.137-0.473-0.42-1.421-0.566-1.894c-0.028-0.093-0.055-0.224-0.085-0.366c-0.038-0.186-0.122-0.57-0.196-0.659
				c-0.172-0.18-1.075-0.492-1.812-0.669l-0.118-0.046l-2.348-1.467l-1.179-1.265l-1.356-1.497l-1.461-2.29l-1.403-2.717
				l-0.439-1.791l-0.402-1.782l-0.15-1.638l-0.151-3.659h6.085l0.344,2.811l0.351,1.966l0.55,1.993l0.763,1.861l0.775,1.097
				l1.216,1.038c0.485,0.177,1.221,0.406,1.462,0.407c0.304,0,0.992-0.213,1.353-0.361c0.403-0.167,1.137-0.595,2.183-1.275
				c0.292-0.191,0.699-0.501,1.13-0.827c0.534-0.403,1.083-0.82,1.476-1.059c0.55-0.328,1.692-0.893,2.308-1.139
				c0.485-0.195,1.454-0.536,1.984-0.613c0.493-0.075,1.241-0.118,2.053-0.118c0.891,0,1.696,0.052,2.219,0.139
				c0.606,0.103,1.724,0.52,2.266,0.774c0.798,0.376,2.221,1.278,2.861,1.77c0.987,0.754,2.706,2.415,3.458,3.231
				c0.577,0.632,1.676,1.955,2.137,2.699c0.407,0.653,1.004,1.919,1.779,3.769c0.394,0.947,1.127,2.811,1.389,3.779
				c0.22,0.798,0.497,2.425,0.6,3.24c0.155,1.234,0.316,3.624,0.329,4.823c0.012,0.982-0.096,2.951-0.197,3.994
				c-0.099,1.014-0.356,3.504-0.666,4.711c-0.232,0.897-0.909,2.544-1.44,3.769c-0.431,0.997-1.313,2.921-1.854,3.84
				c-0.483,0.817-1.588,2.344-2.169,3.079c-0.697,0.88-2.16,2.497-2.904,3.278c-1.096,1.148-2.58,2.659-3.445,3.354
				c-1.073,0.858-3.263,2.266-4.362,2.858c-0.88,0.474-2.722,1.23-3.691,1.589c-0.99,0.371-2.797,0.994-3.745,1.199
				c-0.919,0.195-2.754,0.367-3.706,0.423c-0.566,0.03-1.388,0.052-2.138,0.052c-0.503,0-1.214-0.011-1.714-0.057
				c-0.826-0.07-2.381-0.3-3.142-0.487c-0.786-0.195-2.319-0.75-3.105-1.066c-1.06-0.424-3.093-1.349-4.097-1.871
				c-0.801-0.417-2.248-1.217-2.93-1.711c-0.301-0.22-0.757-0.644-1.122-0.983c-0.109-0.103-0.206-0.192-0.289-0.264
				c-0.161-0.15-0.365-0.362-0.584-0.59c-0.416-0.425-0.931-0.956-1.267-1.155c-0.132-0.072-0.462-0.181-0.582-0.185
				c-0.081,0-0.319,0.078-0.434,0.113c-0.064,0.015-0.117,0.035-0.164,0.047c-0.146,0.04-0.351,0.111-0.562,0.184
				c-0.359,0.122-0.73,0.252-0.999,0.3c-0.3,0.063-0.881,0.106-1.179,0.098c-0.433-0.017-1.502-0.119-2.048-0.335
				c-0.264-0.101-0.618-0.357-0.896-0.567c-0.079-0.058-0.152-0.111-0.211-0.15c-0.115-0.079-0.274-0.201-0.443-0.328
				c-0.21-0.159-0.448-0.335-0.593-0.431l-0.125-0.083c-0.102-0.068-0.344-0.232-0.433-0.254l0,0c-0.143,0-0.36,0.05-0.458,0.091
				c-0.215,0.082-0.63,0.371-0.768,0.525c-0.316,0.361-0.748,1.205-1.283,2.51c-0.164,0.396-0.411,1.226-0.508,1.62
				c-0.123,0.517-0.297,1.608-0.381,2.13c-0.106,0.672-0.289,1.992-0.374,2.695c-0.035,0.303-0.127,1.214-0.127,1.214L25.277,80.48z
				 M18.569,79.694h5.997c0.033-0.294,0.077-0.693,0.096-0.877c0.088-0.71,0.269-2.043,0.374-2.698
				c0.096-0.597,0.266-1.669,0.398-2.214c0.105-0.429,0.364-1.299,0.542-1.737c0.577-1.404,1.043-2.296,1.424-2.727
				c0.236-0.273,0.765-0.622,1.064-0.741c0.216-0.086,0.659-0.177,0.896-0.134c0.221,0.042,0.462,0.194,0.732,0.378l0.108,0.07
				c0.17,0.116,0.411,0.294,0.641,0.466c0.156,0.119,0.307,0.234,0.42,0.31c0.06,0.046,0.139,0.098,0.225,0.165
				c0.221,0.157,0.547,0.403,0.718,0.469c0.385,0.148,1.302,0.261,1.791,0.278h0.076c0.265,0,0.705-0.037,0.927-0.078
				c0.211-0.044,0.57-0.168,0.888-0.275c0.232-0.081,0.449-0.156,0.607-0.201c0.04-0.007,0.088-0.028,0.141-0.044
				c0.269-0.081,0.485-0.145,0.675-0.145c0.296,0.008,0.75,0.16,0.973,0.296c0.431,0.248,0.965,0.799,1.435,1.287
				c0.21,0.212,0.399,0.413,0.553,0.551c0.081,0.075,0.183,0.168,0.296,0.275c0.329,0.31,0.782,0.727,1.045,0.92
				c0.644,0.469,2.079,1.258,2.832,1.648c0.969,0.504,2.998,1.43,4.025,1.838c0.766,0.308,2.253,0.846,3.005,1.032
				c0.716,0.178,2.237,0.404,3.016,0.471c0.375,0.032,0.947,0.049,1.648,0.049c0.728,0,1.548-0.019,2.093-0.053
				c0.965-0.051,2.749-0.223,3.586-0.403c0.9-0.194,2.703-0.816,3.635-1.163c0.946-0.354,2.746-1.093,3.594-1.55
				c1.064-0.57,3.231-1.968,4.241-2.775c0.832-0.667,2.288-2.151,3.364-3.284c0.754-0.785,2.203-2.395,2.858-3.223
				c0.567-0.716,1.645-2.2,2.109-2.989c0.522-0.887,1.392-2.775,1.813-3.755c0.74-1.717,1.223-2.98,1.398-3.651
				c0.293-1.155,0.549-3.592,0.645-4.589c0.095-1.004,0.204-2.97,0.193-3.91c-0.012-1.157-0.175-3.547-0.323-4.734
				c-0.104-0.792-0.37-2.367-0.582-3.131c-0.251-0.933-0.968-2.754-1.356-3.686c-0.748-1.781-1.34-3.048-1.718-3.654
				c-0.421-0.677-1.477-1.959-2.048-2.582c-0.815-0.881-2.49-2.478-3.359-3.14c-0.606-0.467-1.983-1.332-2.72-1.682
				c-0.472-0.223-1.534-0.62-2.057-0.709c-0.47-0.08-1.249-0.127-2.087-0.127c-0.763,0-1.484,0.039-1.937,0.106
				c-0.429,0.065-1.334,0.375-1.81,0.565c-0.575,0.233-1.681,0.78-2.192,1.086c-0.356,0.215-0.891,0.62-1.41,1.013
				c-0.439,0.334-0.86,0.652-1.174,0.856c-1.1,0.716-1.854,1.157-2.315,1.344c-0.283,0.12-1.134,0.421-1.649,0.421
				c-0.488,0-1.586-0.4-1.804-0.481l-0.063-0.025l-1.43-1.23l-0.871-1.258l-0.801-1.963l-0.571-2.053l-0.357-2.022l-0.262-2.141
				h-4.569l0.114,2.821l0.15,1.589l0.387,1.7l0.425,1.736l1.331,2.556l1.426,2.235l1.285,1.414l1.145,1.223l2.169,1.336
				c0.471,0.115,1.744,0.458,2.142,0.885c0.224,0.24,0.314,0.663,0.392,1.033c0.022,0.113,0.042,0.22,0.069,0.297
				c0.143,0.477,0.43,1.428,0.57,1.908c0.056,0.197,0.128,0.47,0.21,0.764c0.122,0.446,0.26,0.956,0.355,1.255
				c0.193,0.619,0.649,1.88,0.886,2.513c0.046,0.133,0.131,0.309,0.214,0.501c0.155,0.365,0.337,0.782,0.41,1.07
				c0.096,0.387,0.15,1.143,0.168,1.45c0.006,0.147,0.044,0.906-0.002,1.292c-0.063,0.479-0.355,1.618-0.636,2.715
				c-0.177,0.671-0.339,1.308-0.396,1.598c-0.113,0.573-0.141,1.154-0.169,1.771c-0.035,0.746-0.07,1.513-0.275,2.263
				c-0.063,0.229-0.266,0.403-0.431,0.541c-0.035,0.031-0.069,0.058-0.088,0.077c-0.333,0.319-1.014,0.916-1.353,1.2
				c-0.289,0.237-0.716,0.553-1.166,0.888c-0.461,0.343-0.938,0.699-1.234,0.943c-0.384,0.323-0.993,0.908-1.531,1.421
				c-0.327,0.314-0.63,0.607-0.857,0.817c-0.125,0.115-0.283,0.262-0.449,0.434c-0.497,0.485-1.059,1.036-1.491,1.294
				c-0.204,0.118-0.657,0.31-0.951,0.336c-0.234,0.026-0.748-0.088-0.954-0.17c-0.132-0.028-0.667-0.072-0.96-0.097
				c-0.165-0.013-0.31-0.028-0.408-0.038c-0.182-0.018-0.434-0.05-0.701-0.081c-0.353-0.051-0.72-0.098-0.949-0.115
				c-0.225-0.015-0.612-0.024-0.952-0.029c-0.214-0.004-0.415-0.008-0.563-0.011c-0.159-0.008-0.367-0.022-0.597-0.039
				c-0.416-0.031-0.896-0.067-1.179-0.051c-0.558,0.028-1.699,0.173-2.215,0.334c-0.202,0.06-0.586,0.232-0.922,0.381
				c-0.562,0.248-0.772,0.336-0.919,0.354c-0.052,0.006-0.133,0.025-0.223,0.045c-0.273,0.057-0.634,0.128-0.867,0.081
				c-0.31-0.07-0.654-0.323-1.041-0.626c-0.056-0.045-0.114-0.088-0.159-0.121c-0.148-0.107-0.324-0.27-0.512-0.44
				c-0.218-0.205-0.463-0.43-0.617-0.523c-0.257-0.163-0.808-0.378-1.21-0.536c-0.168-0.067-0.32-0.127-0.44-0.179
				c-0.141-0.06-0.32-0.142-0.513-0.23c-0.501-0.226-1.124-0.509-1.48-0.603c-0.439-0.114-1.328-0.244-1.744-0.209
				c-0.279,0.028-0.882,0.231-1.329,0.411c-0.472,0.193-1.399,0.655-1.808,0.925c-0.397,0.262-1.148,0.899-1.485,1.237
				c-0.431,0.429-1.212,1.37-1.552,1.863c-0.353,0.522-0.954,1.648-1.21,2.195c-0.227,0.477-0.585,1.45-0.8,2.029l-0.06,0.169
				c-0.114,0.311-0.47,1.264-0.604,1.718c-0.282,0.962-0.743,2.941-0.949,4.005c-0.122,0.6-0.32,1.84-0.388,2.473
				C18.656,78.153,18.599,79.132,18.569,79.694z"/>
		</g>
		<g id="XMLID_188_">
			<path id="XMLID_189_" style="fill:#C6C7E4;" d="M48.722,97.445C21.858,97.445,0,75.589,0,48.722C0,21.856,21.858,0,48.722,0
				s48.722,21.856,48.722,48.722C97.444,75.589,75.587,97.445,48.722,97.445z M48.722,3.546c-24.91,0-45.177,20.267-45.177,45.176
				c0,24.91,20.267,45.177,45.177,45.177c24.908,0,45.175-20.266,45.175-45.177C93.897,23.813,73.63,3.546,48.722,3.546z"/>
		</g>
	</g>
</g>
<g id="Layer_1">
</g>
</svg>
