<?xml version="1.0" encoding="iso-8859-1"?>
<!-- Generator: Adobe Illustrator 19.0.0, SVG Export Plug-In . SVG Version: 6.00 Build 0)  -->
<svg version="1.1" xmlns="http://www.w3.org/2000/svg" xmlns:xlink="http://www.w3.org/1999/xlink" x="0px" y="0px"
	 viewBox="0 0 97.445 97.445" style="enable-background:new 0 0 97.445 97.445;" xml:space="preserve">
<g id="Layer_7">
	<g id="XMLID_28_">
		<g id="XMLID_30_">
			<path id="XMLID_31_" style="fill:#87D0CD;" d="M48.722,97.445C21.858,97.445,0,75.588,0,48.722C0,21.855,21.858,0,48.722,0
				c26.866,0,48.723,21.855,48.723,48.722C97.445,75.588,75.588,97.445,48.722,97.445z M48.722,3.545
				c-24.91,0-45.176,20.268-45.176,45.177c0,24.911,20.266,45.177,45.176,45.177c24.908,0,45.176-20.266,45.176-45.177
				C93.898,23.813,73.63,3.545,48.722,3.545z"/>
		</g>
		<path id="XMLID_29_" style="fill:#87D0CD;" d="M66.666,18.718l-1.535-2.394l-1.598-0.86l-1.963-0.43l-1.721,0.367l-1.596,0.492
			l-1.595,0.246l-1.966,0.123l-1.894,0.982l-2.353,2.335l-1.723,1.154l-1.723-1.154l-2.352-2.335l-1.895-0.982l-1.965-0.123
			l-1.595-0.246l-1.596-0.492l-1.722-0.367l-1.961,0.43l-1.598,0.86l-1.535,2.394l-1.107,4.298v3.684l0.247,3.869l1.105,3.868
			l1.599,3.623l1.289,2.411l0.077,0.154l-0.109,0.078c0,0,0.096,0.588,0.138,0.782c0.108,0.488,0.428,1.44,0.506,1.936
			c0.093,0.58,0.177,1.76,0.138,2.348c-0.06,0.912-0.526,2.692-0.69,3.592c-0.12,0.666-0.332,2.005-0.462,2.671
			c-0.269,1.386-1.047,4.121-1.196,5.525c-0.157,1.475-0.079,4.451,0,5.93c0.079,1.471,0.42,4.404,0.644,5.861
			c0.233,1.507,0.764,4.524,1.2,5.986c0.37,1.258,1.421,3.674,1.932,4.882c0.306,0.723,0.885,2.188,1.291,2.856
			c0.288,0.476,0.995,1.348,1.381,1.751c0.364,0.382,1.102,1.196,1.598,1.381c0.065,0.024,0.207,0.015,0.277,0
			c0.248-0.064,0.685-0.353,0.904-0.492c0.237-0.152,1.11-1.017,1.227-1.276c0.333-0.731,0.401-1.125,0.539-1.732
			c0.109-0.467,0.161-1.427,0.186-1.902c0.018-0.37,0.004-1.107,0-1.476c-0.009-0.567-0.044-1.704-0.06-2.271
			c-0.04-1.134-0.165-3.4-0.186-4.535c-0.019-0.938-0.023-2.817,0-3.756c0.013-0.661,0.086-1.979,0.122-2.64
			c0.081-1.466,0.179-4.408,0.37-5.865c0.1-0.782,0.38-2.344,0.613-3.102c0.275-0.892,1.018-2.621,1.475-3.436
			c0.31-0.559,1.074-1.59,1.472-2.091c0.127-0.159,0.394-0.48,0.554-0.612c0.193-0.163,0.599-0.49,0.871-0.543
			c0.273,0.053,0.678,0.38,0.872,0.543c0.159,0.132,0.426,0.453,0.553,0.612c0.399,0.501,1.164,1.531,1.474,2.091
			c0.457,0.816,1.198,2.544,1.475,3.436c0.233,0.758,0.513,2.32,0.612,3.102c0.191,1.457,0.291,4.399,0.371,5.865
			c0.035,0.661,0.109,1.979,0.122,2.64c0.022,0.94,0.019,2.818,0,3.756c-0.022,1.134-0.147,3.4-0.186,4.535
			c-0.017,0.567-0.053,1.704-0.06,2.271c-0.004,0.369-0.018,1.106,0,1.476c0.023,0.475,0.077,1.435,0.186,1.902
			c0.138,0.607,0.206,1.001,0.538,1.732c0.118,0.26,0.991,1.124,1.228,1.276c0.219,0.138,0.655,0.428,0.903,0.492
			c0.07,0.015,0.213,0.024,0.277,0c0.497-0.186,1.234-1,1.598-1.381c0.387-0.403,1.093-1.275,1.383-1.751
			c0.406-0.668,0.985-2.133,1.289-2.856c0.512-1.207,1.562-3.623,1.933-4.882c0.435-1.462,0.967-4.48,1.2-5.986
			c0.224-1.457,0.565-4.39,0.644-5.861c0.079-1.479,0.157-4.455,0-5.93c-0.15-1.404-0.928-4.139-1.197-5.525
			c-0.129-0.666-0.342-2.005-0.461-2.671c-0.165-0.9-0.631-2.681-0.69-3.592c-0.04-0.588,0.045-1.768,0.137-2.348
			c0.078-0.495,0.399-1.448,0.507-1.936c0.041-0.195,0.138-0.782,0.138-0.782l-0.109-0.078l0.077-0.154l1.289-2.411l1.598-3.623
			l1.106-3.868l0.247-3.869v-3.684L66.666,18.718z"/>
	</g>
</g>
<g id="Layer_1">
</g>
</svg>
